<svg xmlns="http://www.w3.org/2000/svg" width="1172" height="1172">
  <defs>
    <linearGradient id="a" x1="260.74603" x2="255.16003" y1="569.35626" y2="547.71686" gradientUnits="userSpaceOnUse">
      <stop offset="0" stop-color="#C6C6C6"/>
      <stop offset="1" stop-color="#D3FFE5"/>
    </linearGradient>
  </defs>
  <path fill="url(#a)" d="M248.591 541.918c.087.194.178.386.261.581.909 2.144.315 4.723 1.427 6.767 5.259-1.027 11.201-2.2 16.186-4.175l.512.285.108 23.892c-6.218-.016-11.628 1.085-17.572 2.857-.058 1.502.042 3.293-.278 4.745-.204 2.046-.322 4.143-.655 6.17-.418-13.638-.224-27.479.011-41.122Z" transform="scale(1.14455)"/>
  <defs>
    <linearGradient id="b" x1="279.50455" x2="279.49908" y1="694.0047" y2="668.49518" gradientUnits="userSpaceOnUse">
      <stop offset="0" stop-color="#B4D9E0"/>
      <stop offset="1" stop-color="#D4FFEB"/>
    </linearGradient>
  </defs>
  <path fill="url(#b)" d="m302.646 665.67.758-3.016c-.068 15.172.412 30.421-.035 45.583-.445-3.912-.217-8.073-.259-12.018-15.449-8.866-31.553-16.975-46.65-26.398.29-.358.503-.794.869-1.074 2.598-1.991 25.242.92 30.266-.157 5.184 2.305 10.033 5.483 15.161 7.959.089-3.646.119-7.237-.11-10.879Z" transform="scale(1.14455)"/>
  <defs>
    <linearGradient id="c" x1="267.54355" x2="267.1149" y1="668.74127" y2="636.83722" gradientUnits="userSpaceOnUse">
      <stop offset="0" stop-color="#D4FFEB"/>
      <stop offset="1" stop-color="#FAEADB"/>
    </linearGradient>
  </defs>
  <path fill="url(#c)" d="M248.806 638.193c4.884-.837 13.019-2.591 17.786-.591l.839.965.046 18.856c6.683 3.703 13.582 7.218 20.118 11.167-5.024 1.077-27.668-1.834-30.266.157-.366.28-.579.716-.869 1.074-2.505-.849-5.1-2.691-7.412-4.023-.322-9.182-.185-18.416-.242-27.605Z" transform="scale(1.14455)"/>
  <defs>
    <linearGradient id="d" x1="743.90411" x2="738.33533" y1="689.83582" y2="669.72308" gradientUnits="userSpaceOnUse">
      <stop offset="0" stop-color="#B0D7E0"/>
      <stop offset="1" stop-color="#FAE9DE"/>
    </linearGradient>
  </defs>
  <path fill="url(#d)" d="M748.038 660.29c6.718.14 20.166-4.605 26.752-6.902l.742 2.727.002 1.144c.091 2.01.362 3.901-.563 5.759-4.515 4.49-11.47 7.775-16.997 10.932q-17.445 9.98-35.069 19.64c-6.839 3.746-14.482 7.127-20.718 11.761-.495.369-1.01.717-1.513 1.076 8.672-9.333 12.941-17.352 15.617-29.813 5.176-1.508 10.01-4.458 14.865-6.787 5.486-3.356 11.208-6.504 16.882-9.537Z" transform="scale(1.14455)"/>
  <path fill="#FFA69E" d="M856.1668929 755.7349195c7.6890869.160237 23.0809953-5.27065275 30.6190016-7.8996841l.8492561 3.12118785.0022891 1.3093652c-.60088875 1.6275501-.68673 2.91287975-2.30169005 3.7884605-4.9650579 2.6942707-45.60001655 12.910524-53.4710869 14.35609065 1.79579895-1.09533435 3.7358112-2.0189862 4.97993705-3.75984675 6.2790013-3.8411098 12.8281164-7.4441532 19.3222931-10.91557335Z"/>
  <defs>
    <linearGradient id="e" x1="258.73669" x2="256.73294" y1="637.17987" y2="582.49146" gradientUnits="userSpaceOnUse">
      <stop offset="0" stop-color="#FAECDB"/>
      <stop offset="1" stop-color="#C3FFD3"/>
    </linearGradient>
  </defs>
  <path fill="url(#e)" d="M249.513 572.125c5.944-1.772 11.354-2.873 17.572-2.857-.037 2.628.108 5.432-.143 8.038q.471 30.629.489 61.261l-.839-.965c-4.767-2-12.902-.246-17.786.591-.142-18.371-.556-36.786-.226-55.153.333-2.027.451-4.124.655-6.17.32-1.452.22-3.243.278-4.745Z" transform="scale(1.14455)"/>
  <path fill="#FAF1DE" d="M285.58010415 654.82566875c6.8032052-2.0281426 12.9952207-3.28829215 20.1120326-3.26997935-.04234835 3.0078774.1236114 6.2171956-.16367065 9.1998929-.58715415 1.99037245.1236114 4.852892-1.0690097 6.3568307-4.41910755-1.39062825-11.1067132-.7714267-15.68376865.21631995-1.08846705.23463275-1.7259814.39258065-2.8430622.13849055-.0480711-2.06133455.0389147-4.2897734-.4372181-6.3018923-.07210665-.3044503-.1556588-.6066115-.2334882-.9087727.366256-1.6618866.251801-3.71177565.3181849-5.43088975Z"/>
  <defs>
    <linearGradient id="f" x1="266.28705" x2="248.73326" y1="544.95026" y2="481.62305" gradientUnits="userSpaceOnUse">
      <stop offset="0" stop-color="#D3FFE5"/>
      <stop offset="1" stop-color="#C3FFD3"/>
    </linearGradient>
  </defs>
  <path fill="url(#f)" d="M266.596 438.429c.765 11.985.295 24.291.233 36.311.248 23.491.69 47.155.148 70.636l-.512-.285c-4.985 1.975-10.927 3.148-16.186 4.175-1.112-2.044-.518-4.623-1.427-6.767-.083-.195-.174-.387-.261-.581-.585-9.623-.067-19.617-.075-29.288q-.145-25.226.038-50.451c-.475-5.038-.102-10.535-.109-15.618 3.392-.175 14.439.886 16.525-1.015 1.781-1.622 1.535-4.904 1.626-7.117Z" transform="scale(1.14455)"/>
  <path fill="#C3FFD3" d="M305.1324518 501.80391195c.87558075 13.71743175.33764225 27.80226405.26668015 41.55975505-.6569717.9064836-.45438635.5081802-.85040065 1.4787586-.11102135.2701138-.5905878 1.56231075-.7531139 1.70652405-.2861375.25523465-2.7675219.67413995-3.28371395.801185-5.3061338 1.30593155-9.8637319 2.52831095-14.67198645 5.2489063.00801185-5.8509396.3067394-18.38719575-1.3574363-23.6120665-.54366125-5.7662429-.1167441-12.05783425-.12475595-17.8755819 3.8823136-.20029625 16.52615745 1.0140713 18.91368875-1.16171825 2.03844355-1.8564601 1.75688425-5.6128732 1.8610383-8.14576235Z"/>
  <defs>
    <linearGradient id="g" x1="667.37415" x2="587.3045" y1="257.43668" y2="334.87411" gradientUnits="userSpaceOnUse">
      <stop offset="0" stop-color="#91CFE0" stop-opacity=".98823529"/>
      <stop offset="1" stop-color="#D2FFE6"/>
    </linearGradient>
  </defs>
  <path fill="url(#g)" d="M511.384 216.335c11.853 3.458 24.692 12.462 35.434 18.669l40.011 22.807 181.824 103.283-.059 1.061c-2.147.914-4.217.539-6.382 1.159-2.786.267-6.768 3.957-8.563 6.098-.239.285-.467.58-.694.875.477.994.931 1.974 1.338 3-2.995-1.546-5.837-3.583-8.819-5.212-18.165-9.929-36.013-20.398-54.077-30.508L511.639 235.929c-4.461 2.186-8.807 4.634-13.178 6.993-4.387-4.104-6.924-10.667-12.737-13.118 7.962-4.721 16.762-10.888 25.66-13.469Z" transform="scale(1.14455)"/>
  <defs>
    <linearGradient id="h" x1="735.18994" x2="610.5708" y1="666.43042" y2="456.39014" gradientUnits="userSpaceOnUse">
      <stop offset="0" stop-color="#AED9E0"/>
      <stop offset="1" stop-color="#83F58E"/>
    </linearGradient>
  </defs>
  <path fill="url(#h)" d="m768.653 361.094 6.926 3.876c-.024 5.253.113 10.577-.109 15.822.776 19.275.031 38.561.049 57.838.015 16.362.935 33.252-.058 49.559.355 14.57.136 29.188.164 43.764.011 6.157.848 13.739-.074 19.763.52 12.88-.19 25.787.229 38.673q.327 21.336.008 42.673c-.048 7.645.205 15.427-.256 23.053l-.742-2.727c-6.586 2.297-20.034 7.042-26.752 6.902-5.674 3.033-11.396 6.181-16.882 9.537-4.855 2.329-9.689 5.279-14.865 6.787-2.676 12.461-6.945 20.48-15.617 29.813-5.811 4.674-11.557 7.786-18.502 10.459-9.551 2.227-29.395 1.839-39.105.139-4.13-.723-7.933-1.966-11.853-3.435-11.613-6.663-18.57-14.114-23.892-26.461-.889 1.963-1.351 2.305-3.356 3.039-8.301 3.037-28.863 7.959-35.007 11.565.01 2.832-.523 7.579.478 10.165l.003 2.186c-.103 1.274-.269 2.378-.595 3.623-4.347 1.304-17.77.409-23.112.42l-.142-42.095c-1.45-1.754-2.837-3.726-4.695-5.061-3.875-5.568-8.983-10.671-13.689-15.553-9.406-11.6-20.718-21.386-29.288-33.701 3.484-.737 7.802-.332 11.415-.503l5.615-.058q.126-15.14-.015-30.279c.201-3.179.033-6.453.018-9.644l.082-1.206-.775.686-.621-.228c-2.081.543-4.242.831-5.573 2.682 1.007-5.412.42-11.671.431-17.183 1.754-.047 2.792-.208 4.359-1.017.815-1.004 1.192-1.576 1.45-2.89l.576-2.883c.374-15.457-.118-31.135-.302-46.609 10.994-5.582 21.722-12.009 32.507-17.999q33.843-18.811 67.487-37.976c-.027-.065-.051-.13-.08-.194-.832-1.901-1.055-3.24-1.047-5.318 13.562-8.855 28.442-16.234 42.646-24.053l70.542-38.918q8.94-4.96 17.959-9.773c3.224-1.698 6.622-3.114 9.7-5.067-.407-1.026-.861-2.006-1.338-3 .227-.295.455-.59.694-.875 1.795-2.141 5.777-5.831 8.563-6.098 2.165-.62 4.235-.245 6.382-1.159l.059-1.061Z" transform="scale(1.14455)"/>
  <defs>
    <linearGradient id="i" x1="513.91882" x2="508.64432" y1="579.50812" y2="566.64587" gradientUnits="userSpaceOnUse">
      <stop offset="0" stop-color="#CDC1B1"/>
      <stop offset="1" stop-color="#C3FFD3"/>
    </linearGradient>
  </defs>
  <path fill="url(#i)" d="M508.496 565.984c1.754-.047 2.792-.208 4.359-1.017.815-1.004 1.192-1.576 1.45-2.89l.576-2.883q.129 10.416.153 20.833l-.775.686-.621-.228c-2.081.543-4.242.831-5.573 2.682 1.007-5.412.42-11.671.431-17.183Z" transform="scale(1.14455)"/>
  <defs>
    <linearGradient id="j" x1="766.09644" x2="759.05658" y1="655.7453" y2="631.28632" gradientUnits="userSpaceOnUse">
      <stop offset="0" stop-color="#FF9AA7"/>
      <stop offset="1" stop-color="#F9A"/>
    </linearGradient>
  </defs>
  <path fill="url(#j)" d="M775.255 626.608c-.002 2.18-.173 4.366.533 6.454-.048 7.645.205 15.427-.256 23.053l-.742-2.727c-6.586 2.297-20.034 7.042-26.752 6.902 3.251-2.118 6.398-4.275 9.459-6.661l.392-22.13c3.028.586 14.086-3.364 17.366-4.891Z" transform="scale(1.14455)"/>
  <defs>
    <linearGradient id="k" x1="771.56256" x2="761.5" y1="627.82556" y2="595.37628" gradientUnits="userSpaceOnUse">
      <stop offset="0" stop-color="#FF99A2"/>
      <stop offset="1" stop-color="#FAF6E2"/>
    </linearGradient>
  </defs>
  <path fill="url(#k)" d="M775.78 590.389q.327 21.336.008 42.673c-.706-2.088-.535-4.274-.533-6.454-3.28 1.527-14.338 5.477-17.366 4.891q-.216-19.417.198-38.83l.476.143c.826 1.356.638 2.617.709 4.186.977.21 3.095-1.756 4.072-2.355 3.587-2.2 8.423-3.028 12.436-4.254Z" transform="scale(1.14455)"/>
  <path fill="#FF8ED1" d="M681.06104385 552.58072815c.02632465 20.1417909.33993135 40.2812927.1579479 60.42193905-.05379385 6.06039225.80232955 14.0527849-.47041005 19.95065105-.1968626.90762815-.54366125 1.4558676-1.0644315 2.18494595-8.9252009-5.2511954-18.16286395-10.40739315-27.57335405-14.73608125-4.86090385-3.19901725-10.2208315-5.69413625-15.3163681-8.5017174-8.1194377-4.47404595-16.13014315-9.1449545-24.2759055-13.57092935-1.1262372-1.76832975-2.8499295-2.6645124-4.5759109-3.76671405 23.4518295-15.3987757 49.20305995-27.28034925 73.1184322-41.982094Z"/>
  <path fill="#B0D6E0" d="m689.73444375 548.5255875.2495119-.9339528c24.73258095-14.25994845 49.33124955-29.7376981 75.1648876-41.9111319-.05150475 10.8800923-1.2773178 26.9770435.54366125 37.2184769-3.57671875 13.1302776.45782 29.0967501-.7485357 42.56466995-.45209725.07897395-.90076085.3021612-1.35400265.2357773-4.72355785-.6958864-63.8819137-32.5212437-73.8555224-37.17383945Z"/>
  <path fill="#E5E5E5" d="M886.453975 515.50417545c-.068673 7.0321152-.4395072 39.12873085 1.09991255 43.2525445.40631525 16.6760935.1556588 33.4071254.1877062 50.0900862.01259005 7.04699435.9705784 15.72497245-.0846967 22.61974165.595166 14.741804-.2174645 29.51451085.26210195 44.26318215-4.59307915 1.4032183-10.12812295 2.3509057-14.2336238 4.8689157-1.11822535.68558545-3.54238225 2.93577075-4.6606076 2.69541525-.08126305-1.79579895.13391235-3.2390765-.81148595-4.7910863l-.5448058-.16367065c-.0549384-7.45903235-.755403-14.7738514-.53450485-22.26722025-.938531-28.4947168-.11102135-57.32020855-.0183128-85.84926185 1.7877871-13.55032745.6249243-27.1876407.97401205-40.8032075.0755403-2.9414935.2907157-7.3136745 2.68396975-9.35440715 3.77358135-3.21504095 10.8938269-4.9742143 15.680335-4.56103175Z"/>
  <path fill="#FAF1DE" d="M867.133971 656.0720837c.6386589-7.1328356.526493-14.5289177.84353335-21.70410165 1.2635832 9.1953147.46354275 19.3383168.4257726 28.6183282 2.655356-.17969435 6.47014115-.9774457 8.87598525-2.1219957 2.5042754-1.19147655 5.8028685-1.8747729 8.07708935-3.30431585.206019-.12933415 1.12051445-.8309433 1.28304055-1.190332 1.68821125-3.7289439-.5997442-18.33912465.732512-23.8226637.08813035-.3616778.1899953-.7210665.28499295-1.0804552.595166 14.741804-.2174645 29.51451085.26210195 44.26318215-4.59307915 1.4032183-10.12812295 2.3509057-14.2336238 4.8689157-1.11822535.68558545-3.54238225 2.93577075-4.6606076 2.69541525-.08126305-1.79579895.13391235-3.2390765-.81148595-4.7910863l-.5448058-.16367065c-.0549384-7.45903235-.755403-14.7738514-.53450485-22.26722025Z"/>
  <path fill="#C3FFD3" d="M604.25944975 682.04077865c.3799906-10.8526231-.9980476-22.17336715-1.32882255-33.06261585-.3502323-11.51760665.297583-22.86238625.58028685-34.36282465.13849055-5.6678116-.640948-12.24554045.6821518-17.73251315l1.02437225-.61462335c2.5912612.05150475 4.90897495 1.1514173 7.30108445 2.06133455 8.14576235 4.42597485 16.1564678 9.0968834 24.2759055 13.57092935 5.0955366 2.80758115 10.45546425 5.30270015 15.3163681 8.5017174l-.2838484.59631055.69703095 1.06328695c-1.42954295 1.06557605-2.9048679 2.06362365-4.097489 3.3993135 7.86191395 6.0546695 16.09809575 10.5344382 24.49337 15.703226-6.72423125 4.99367165-64.2435915 40.30990645-68.66040995 40.8764587Z"/>
  <path fill="#CAD9E0" d="M648.4264897 625.46109395c-1.4627349-.7622703-3.6831619-1.693934-4.69379955-3.0513703-.7920286-1.06328695-.96714475-1.6229719-.6340807-2.83962855.21631995-.1030095.42462805-.22318725.6478153-.31017305 2.8773987-1.1239481 5.4915509.572275 8.080523 1.73857145l.69703095 1.06328695c-1.42954295 1.06557605-2.9048679 2.06362365-4.097489 3.3993135Z"/>
  <path fill="#B0D6E0" d="m879.76179115 413.2901377 7.9271533 4.4362758c-.0274692 6.01232115.12933415 12.10590535-.12475595 18.1090701.8881708 22.06120125.03548105 44.13499255.05608295 66.1984829.01716825 18.7271271 1.07015425 38.0585766-.0663839 56.72275345-1.53941975-4.12381365-1.16858555-36.2204293-1.09991255-43.2525445-4.7865081-.41318255-11.90675365 1.3459908-15.680335 4.56103175-2.39325405 2.04073265-2.60842945 6.41291365-2.68396975 9.35440715-.34908775 13.6155668.81377505 27.25288005-.97401205 40.8032075-.50703565-18.4593024.14993605-37.11203375.1396351-55.59422715-.01030095-17.5436624-.6043224-35.08618025-.55052855-52.62755355.03090285-10.1933623.56197405-20.3981701.82750965-30.5892433-20.5973218 12.7182396-42.50057515 23.9760334-63.69306295 35.7122491l-100.4296843 55.48892855c-.03090285-.07439575-.05837205-.1487915-.091564-.2220427-.9522656-2.17578955-1.20750025-3.708342-1.19834385-6.0867169 15.5223871-10.13499025 32.5532911-18.5806247 48.8104793-27.52986115l80.7388461-44.5435969q10.232277-5.676968 20.55497345-11.18568715c3.6900292-1.9434459 7.5792101-3.5641287 11.102135-5.79943485-.46583185-1.1743083-.98545755-2.2959673-1.5314079-3.43365.25981285-.33764225.52077025-.6752845.7943177-1.00148125 2.05446725-2.45048155 6.61206535-6.67387105 9.80078165-6.9794659 2.47795075-.709621 4.84716925-.28041475 7.3045181-1.32653345l.06752845-1.21436755Z"/>
  <path fill="#B0D6E0" d="M775.5974402 500.2873832c1.83013545-3.81478515 69.5840618-39.5854063 78.7519073-44.17390725-.1396351 18.77176455-.50016835 37.56298645-.39029155 56.3324619.0595166 10.1292675.7416684 20.3546772.52305935 30.47135465l-2.5294555.0297583c-4.6125365-1.5817681-7.9363097-5.47209355-12.1665665-7.76119355-21.42483145-11.58856875-42.90116765-23.0237678-64.1886531-34.89847405Z"/>
  <path fill="#FF8ED1" d="M689.73444375 548.5255875c9.9736087 4.65259575 69.13196455 36.47795305 73.8555224 37.17383945.4532418.0663839.9019054-.15680335 1.35400265-.2357773.78630585.70160915.61920155.28728205.66727265 1.2246685.27125835 5.21342525-.12704505 10.415405.03090285 15.62196295l-.8217869-8.5864141c-13.6682161 7.4876461-31.54494255 17.29300595-45.8552512 22.93334835-9.3463953 5.0154181-28.05406505 12.3016234-34.6821541 19.6313216l-.618057.50932475c-1.6527302.1350569-2.678247-.78401675-3.9807449-1.6595975.52077025-.72907835.8675689-1.2773178 1.0644315-2.18494595 1.2727396-5.89786615.4166162-13.8902588.47041005-19.95065105.18198345-20.14064635-.13162325-40.28014815-.1579479-60.42193905l3.3901571-2.24675165c.15680335-.1167441.3067394-.24378915.4692655-.3525214 1.6000809-1.0644315 2.7286072-1.19376565 4.57247725-.78630585l.24150005-.66956175Z"/>
  <path fill="#B0D6E0" d="M684.45120095 550.3339765c.15680335-.1167441.3067394-.24378915.4692655-.3525214 1.6000809-1.0644315 2.7286072-1.19376565 4.57247725-.78630585 4.005925 2.97697455 8.58298045 4.875783 12.7800453 7.5219826-3.3214841-.1052986-6.07870505-2.3371711-8.7306274-4.1615838-.56426315 7.49336885-1.2155121 14.80933245-2.99757645 22.135597-.19571805-6.32821695.18885075-12.773178.7027537-19.0819376-1.88965205 1.6229719-3.8319534 3.2070291-5.64606515 4.91355315-.01487915 2.95637265.4784219 6.7620014-1.02895045 9.3921773-.21860905-6.51363405-.1098768-13.0616046-.1213223-19.5809614Z"/>
  <path fill="#B8F2E6" d="M684.45120095 550.3339765c.0114455 6.5193568-.09728675 13.06732735.1213223 19.5809614-1.0392514 22.04746665 1.06328695 44.3764926-.28957115 66.37359905l-.618057.50932475c-1.6527302.1350569-2.678247-.78401675-3.9807449-1.6595975.52077025-.72907835.8675689-1.2773178 1.0644315-2.18494595 1.2727396-5.89786615.4166162-13.8902588.47041005-19.95065105.18198345-20.14064635-.13162325-40.28014815-.1579479-60.42193905l3.3901571-2.24675165Z"/>
  <path fill="#99CDE0" d="M689.73444375 548.5255875c9.9736087 4.65259575 69.13196455 36.47795305 73.8555224 37.17383945.4532418.0663839.9019054-.15680335 1.35400265-.2357773.78630585.70160915.61920155.28728205.66727265 1.2246685.27125835 5.21342525-.12704505 10.415405.03090285 15.62196295l-.8217869-8.5864141c-13.6682161 7.4876461-31.54494255 17.29300595-45.8552512 22.93334835 12.1253627-11.64808535 31.8322246-16.0763493 45.08954725-26.56615005-20.9292413-10.4978126-40.69447525-23.42092665-61.78166445-33.37393345-4.19706485-2.6461996-8.7741203-4.54500805-12.7800453-7.5219826l.24150005-.66956175Z"/>
  <defs>
    <linearGradient id="l" x1="703.85352" x2="715.27417" y1="489.66217" y2="538.88824" gradientUnits="userSpaceOnUse">
      <stop offset="0" stop-color="#FF73DC"/>
      <stop offset="1" stop-color="#E5E5E5"/>
    </linearGradient>
  </defs>
  <path fill="url(#l)" d="M677.644 437.104c18.599 10.375 37.363 20.366 56.082 30.491 3.696 2 6.6 5.399 10.63 6.781l2.21-.026c.091 1.449.319 2.953-.051 4.373l.155 33.988c.032 5.155.602 11.005-.085 16.082-.15 1.544-.324 3.088-.403 4.638l-.603-1.003c-4.52-.65-61.842 14.411-71.808 16.454l-.288.5c-.44.754-.262.464-.801 1.233l-.436-.323c-.665-1.067-1.174-2.178-2.358-2.734-.655.896-.566 1.73-.585 2.791l-.004.485-.419.161c-1.958-6.139.929-17.332.121-24.322-.016-.144-.037-.287-.055-.431-.138-4.549.21-9.094-.027-13.649-.042-.819.104-.457-.583-1.07 1.054-11.767-2.471-25.717.654-37.189.304.985.583 1.835 1.046 2.763.445.892.146.617 1.049.916.989-1.262 1.102-2.641 1.366-4.172.032-5.365-.638-31.962 1.848-34.748l1.149.159 2.196-2.148Z" transform="scale(1.14455)"/>
  <path fill="#CAD9E0" d="m851.9526598 542.9470508 2.5294555-.0297583c.10415405 1.65845295.36511145 3.37985615-.05837205 5.00511715-17.33649885 9.87174375-34.68787685 19.24331915-52.46960565 28.2795414-6.2217738 3.1612471-12.95516145 7.348011-19.5672268 9.53066785-1.99266155-1.03352865-6.94627395 2.73661905-9.9758978 2.44132515 1.1537064-1.67218755 11.92277735-5.84521685 14.4968703-7.3342764l-.17053795-.8103414c3.50804575-2.8522186 9.3578408-4.95704605 13.459908-7.01265785 10.5619074-5.29354375 44.9602131-21.75217275 51.8961861-27.904129.35824415.4417963 1.030095.82064235 1.4947823 1.15714005.01030095-1.44556665-.7966068-2.24217345-1.63556195-3.32262865Z"/>
  <path fill="#D2FFE6" d="M765.6925045 542.8989797c.3479432 1.12738175.66727265 2.10024925 1.1971993 3.16239165.50932475 1.0209386.1671043.70618735 1.20063295 1.0484078 1.13195995-1.4444221 1.2612941-3.02275655 1.5634553-4.7750626.8515452 15.0760126.1945735 30.2458783.59173235 45.34592645 5.53161015-2.3829531 10.9144288-5.4640817 16.49182095-7.65131675l.17053795.8103414c-2.57409295 1.48905955-13.3431639 5.66208885-14.4968703 7.3342764 3.02962385.2952939 7.98323625-3.4748538 9.9758978-2.44132515-4.9375887 1.9320004-9.087727 3.3718443-12.8441401 7.31252995.0297583 12.09217075.78401675 24.77836295-.1236114 36.79155975-.76112575-1.22123485-1.3437017-2.4928299-2.6988489-3.1291997-.74968025 1.0255168-.6478153 1.9800715-.66956175 3.19443905l-.0045782.55510675-.47956645.18427255c-2.2410289-7.02639245 1.06328695-19.8373406.13849055-27.8377451-.0183128-.1648152-.04234835-.32848585-.06295025-.49330105-.1579479-5.20655795.2403555-10.4085377-.03090285-15.62196295-.0480711-.93738645.1190332-.52305935-.66727265-1.2246685 1.2063557-13.46791985-2.82818305-29.43439235.7485357-42.56466995Z"/>
  <path fill="#B0D6E0" d="M775.5974402 500.2873832c21.28748545 11.87470625 42.76382165 23.3099053 64.1886531 34.89847405 4.2302568 2.2891 7.55403 6.17942545 12.1665665 7.76119355.83895515 1.0804552 1.6458629 1.877062 1.63556195 3.32262865-.4646873-.3364977-1.13653815-.71534375-1.4947823-1.15714005-6.935973 6.15195625-41.3342787 22.61058525-51.8961861 27.904129-4.1020672 2.0556118-9.95186225 4.16043925-13.459908 7.01265785-5.57739215 2.18723505-10.9602108 5.26836365-16.49182095 7.65131675-.39715885-15.10004815.25981285-30.26991385-.59173235-45.34592645.0366256-6.14051075-.7302229-36.5821071 2.1151284-39.7708234l1.31508795.18198345 2.5134318-2.4584934Z"/>
  <path fill="#99CDE0" d="M775.5974402 500.2873832c21.28748545 11.87470625 42.76382165 23.3099053 64.1886531 34.89847405 4.2302568 2.2891 7.55403 6.17942545 12.1665665 7.76119355.83895515 1.0804552 1.6458629 1.877062 1.63556195 3.32262865-.4646873-.3364977-1.13653815-.71534375-1.4947823-1.15714005-4.7109678-2.4859626-9.7927698-4.3309772-14.54608595-6.8032052-9.72524135-5.058911-19.25476465-10.62256855-28.87814105-15.88978765-11.87470625-6.49989945-23.91995045-12.8052254-35.58520405-19.67366995l2.5134318-2.4584934Z"/>
  <defs>
    <linearGradient id="m" x1="640.55139" x2="655.146" y1="526.66901" y2="588.05804" gradientUnits="userSpaceOnUse">
      <stop offset="0" stop-color="#FF92D7"/>
      <stop offset="1" stop-color="#C0F2DC"/>
    </linearGradient>
  </defs>
  <path fill="url(#m)" d="M628.164 538.777c12.503-4.928 28.122-13.495 40.064-20.037l.718 7.502c.018.144.039.287.055.431.808 6.99-2.079 18.183-.121 24.322l.419-.161.004-.485c.019-1.061-.07-1.895.585-2.791 1.184.556 1.693 1.667 2.358 2.734l.436.323c.539-.769.361-.479.801-1.233l.288-.5c9.966-2.043 67.288-17.104 71.808-16.454l.603 1.003c.079-1.55.253-3.094.403-4.638.643 10.942.342 22.602-.173 33.573-5.751 1.792-11.691 6.028-16.923 9.113-2.54-1.446-5.727.483-7.746-1.073l.213-1.268c-3.852 2.06-9.311 5.169-11.625 8.973-4.118 1.18-7.787 2.856-11.588 4.824-5.044 2.611-22.418 14.193-25.857 14.194-.794-2.336.547-5.62.66-8.129l-4.968.942c.003.482.023 1.407-.043 1.86-.185 1.289-.495 1.379-1.526 1.979-4.307.356-10.015-4.025-13.753-6.045-2.258 1.05-4.74 1.812-7.078 2.682l-7.056-3.221c-1.273 2.554-6.315 4.097-8.972 4.999-22.942 7.789-46.413 14.41-69.543 21.643-7.431 2.325-24.358 6.125-29.912 10.389-.484-.623-.997-1.358-1.593-1.875-1.24-1.077-2.949-1.031-4.486-1.006-1.805.03-3.527-.091-5.321-.278 2.73-.384 5.579-.226 8.333-.231-.391-5.048-1.885-12.444.13-17.162q-.244-2.734-.557-5.461l.744-2.312c3.859-.495 54.114-31.351 59.989-35.714-7.335-4.516-14.531-8.43-21.4-13.72 1.042-1.167 2.331-2.039 3.58-2.97l-.609-.929.248-.521c8.222 3.782 16.293 8.287 24.091 12.875 1.138.765 2.034 1.568 3.478 1.45l.54-.445c5.791-6.404 22.136-12.77 30.302-17.152Z" transform="scale(1.14455)"/>
  <path fill="#B8F2E6" d="M682.8522646 664.2876636c-.3250522-5.81774765-.48643375-11.30014215.480711-17.0606623l.42233895.21631995c.732512 4.4316976.7210665 8.6848454.6386589 13.1669032-.47727735 1.2315358-.8904599 2.52831095-1.54170885 3.67743915Z"/>
  <path fill="#C3FFD3" d="M603.40790455 684.68697825c8.76610845-2.61529675 18.4158095-13.3271402 26.71265245-14.4556665 3.15552435-.42920625 3.86743445 2.76179915 6.0272003 4.3126644.251801.18198345.51161385.35366595.76799305.5310712-9.7767461 5.5739585-21.6503078 13.8513441-32.87033145 15.86231845q-.2792702-3.1291997-.63751435-6.25038755Z"/>
  <path fill="#99CDE0" d="M729.87381225 661.58995925c9.774457-5.99629745 22.45263735-7.01952515 33.54561595-8.87140705 1.2956306 5.2077025 1.8495928 10.3535993 2.23759525 15.69750325l-.43607355 6.80206065c.00343365.5516731.02632465 1.61038185-.04921565 2.128863-.21174175 1.47532495-.56655225 1.57833445-1.7465833 2.26506445-4.92957685.4074598-11.46266825-4.60681375-15.74099615-6.91880475-4.2760388-2.0624791-14.2061546-8.1377505-17.81034255-11.10327955Z"/>
  <path fill="#99CDE0" d="M770.1127566 662.3991561c.5310712-1.6115264 1.1491282-2.72288445 2.08880375-4.1386928 5.6105841-3.6190671 55.82771535-15.68834685 62.67441345-15.5933492 1.54170885.02174645 2.4470479-.0045782 3.5984652 1.1056353-1.3803273 3.35238695-8.89887625 6.06268135-12.1596992 7.6341485-4.4088066 2.357773-10.65690505 5.91617895-13.30539375 10.27004715-4.7132569 1.350569-8.91261085 3.2688348-13.2630454 5.5213092-5.7731102 2.98842005-25.6585219 16.24459815-29.59462935 16.2457427-.9087727-2.6736688.62606885-6.432371.755403-9.30404695l-5.6861244 1.0781661.43607355-6.80206065c1.3414126-.20716355 2.46192705-.3616778 3.7335221-.87786985.18427255-1.7236923.4509527-3.42792725.72221105-5.1390295Z"/>
  <path fill="#B8F2E6" d="M765.65702345 668.41605545c1.3414126-.20716355 2.46192705-.3616778 3.7335221-.87786985.18427255-1.7236923.4509527-3.42792725.72221105-5.1390295.03548105 3.76442495-.3342086 8.12058225.7943177 11.7407939l-5.6861244 1.0781661.43607355-6.80206065Z"/>
  <defs>
    <linearGradient id="n" x1="576.19098" x2="584.21857" y1="580.78528" y2="606.6167" gradientUnits="userSpaceOnUse">
      <stop offset="0" stop-color="#E3D7C4"/>
      <stop offset="1" stop-color="#D2FFF3"/>
    </linearGradient>
  </defs>
  <path fill="url(#n)" d="M618.821 576.708c6.574 2.794 14.456 6.383 20.301 10.489-1.273 2.554-6.315 4.097-8.972 4.999-22.942 7.789-46.413 14.41-69.543 21.643-7.431 2.325-24.358 6.125-29.912 10.389-.484-.623-.997-1.358-1.593-1.875-1.24-1.077-2.949-1.031-4.486-1.006-1.805.03-3.527-.091-5.321-.278 2.73-.384 5.579-.226 8.333-.231-.391-5.048-1.885-12.444.13-17.162 9.803-1.757 20.177-8.989 28.719-13.859 12.077-4.84 15.796-11.304 30.967-10.878 4.048.114 7.288 2.957 8.982 2.9l.186-1.447c.569-1.004.93-2.137 1.347-3.213-.018 2.847-.516 6.974.378 9.639 2.811-.247 16.662-8.476 20.484-10.11Z" transform="scale(1.14455)"/>
  <defs>
    <linearGradient id="o" x1="636.82983" x2="662.86163" y1="588.68146" y2="671.57843" gradientUnits="userSpaceOnUse">
      <stop offset="0" stop-color="#CAFFEE"/>
      <stop offset="1" stop-color="#D2FFE6"/>
    </linearGradient>
  </defs>
  <path fill="url(#o)" d="M729.489 571.479c5.232-3.085 11.172-7.321 16.923-9.113.195 10.476 1.733 83.94-.149 86.119-.275.318-.503.476-.823.726-5.208 3.066-10.314 6.308-15.626 9.193-4.251 2.31-8.743 4.305-12.925 6.707.266 3.851-.073 7.684-.598 11.503-2.676 12.461-6.945 20.48-15.617 29.813-5.811 4.674-11.557 7.786-18.502 10.459-9.551 2.227-29.395 1.839-39.105.139-4.13-.723-7.933-1.966-11.853-3.435-11.613-6.663-18.57-14.114-23.892-26.461-.889 1.963-1.351 2.305-3.356 3.039-8.301 3.037-28.863 7.959-35.007 11.565.01 2.832-.523 7.579.478 10.165l.003 2.186c-.103 1.274-.269 2.378-.595 3.623-4.347 1.304-17.77.409-23.112.42l-.142-42.095c-1.45-1.754-2.837-3.726-4.695-5.061-3.875-5.568-8.983-10.671-13.689-15.553-9.406-11.6-20.718-21.386-29.288-33.701 3.484-.737 7.802-.332 11.415-.503l5.615-.058c1.414-.023 2.947.062 4.346-.087 1.794.187 3.516.308 5.321.278 1.537-.025 3.246-.071 4.486 1.006.596.517 1.109 1.252 1.593 1.875 5.554-4.264 22.481-8.064 29.912-10.389 23.13-7.233 46.601-13.854 69.543-21.643 2.657-.902 7.699-2.445 8.972-4.999l7.056 3.221c2.338-.87 4.82-1.632 7.078-2.682 3.738 2.02 9.446 6.401 13.753 6.045 1.031-.6 1.341-.69 1.526-1.979.066-.453.046-1.378.043-1.86l4.968-.942c-.113 2.509-1.454 5.793-.66 8.129 3.439-.001 20.813-11.583 25.857-14.194 3.801-1.968 7.47-3.644 11.588-4.824 2.314-3.804 7.773-6.913 11.625-8.973l-.213 1.268c2.019 1.556 5.206-.373 7.746 1.073Z" transform="scale(1.14455)"/>
  <path fill="#B8F2E6" d="M813.00934605 661.67694505c2.6484887-4.3538682 8.89658715-7.91227415 13.30539375-10.27004715l-.24378915 1.4512894c2.31084645 1.7809198 5.9585273-.42691715 8.8656843 1.22810215-3.4130481 2.13458575-11.857538 8.6642435-15.6139511 8.55322215-.80004045-1.0026258-1.05641965-1.52797425-2.48023985-1.57604535-1.18003105-.04005925-2.66107875.3914361-3.83309795.6134788Z"/>
  <path fill="#D2FFE6" d="m818.49402965 752.4363264.59173235-1.9434459c1.1285263-1.2315358 23.7883272-7.93974335 27.6317261-9.2159166 1.97205965-.6546826 3.9784558-.64209255 5.85666235-1.67447665.3273413-.1808389.64667075-.3754124.9705784-.5631186.13849055 1.39520645-.13391235 2.64047685-.35137685 4.0150814-5.9608164 3.5091903-11.8048887 7.2198214-17.8847383 10.52184815-4.86548205 2.6439105-10.00680065 4.92728775-14.79330875 7.67649685-.8378106-2.85107405-1.36086995-5.9127453-2.0212753-8.81646865Z"/>
  <path fill="#FF7977" d="M671.92982395 710.7563936q16.69783995-.20716355 33.3933908.0892749c-17.3307761 21.40422955-35.99953115 41.27361755-54.02161545 62.0368991q-.2037299 15.1423965-.09957585 30.28593755c.0114455 3.2413656-.59859965 8.67454445.5470949 11.63435075l.00343365 2.5019863c-.11788865 1.4581567-.30788395 2.7217399-.68100725 4.14670465-4.97535885 1.4924932-20.3386535.46812095-26.4528396.480711l-.1625261-48.17983225c-1.6595975-2.0075407-3.24708835-4.2645933-5.37366225-5.79256755-4.43513125-6.3728544-10.28149265-12.21349305-15.66774495-17.80118615-10.7656373-13.27678-23.7127869-24.4773463-33.5215804-38.57247955 3.9876122-.84353335 8.9297791-.3799906 13.06503825-.57570865l6.42664825-.0663839c1.6183937-.02632465 3.37298885.0709621 4.9742143-.09957585 2.0533227.21403085 4.0242378.3525214 6.09015055.3181849 1.75917335-.02861375 3.7152093-.08126305 5.1344513 1.1514173.6821518.59173235 1.26930595 1.4329766 1.82326815 2.14603125q14.69029925 18.404364 29.94943985 36.3394625c11.4523673-13.2287089 22.16878895-27.7278683 34.57342185-40.0432263ZM695.1103951 786.45349695q-.62835795-1.76375155-1.1971993-3.54696045c-4.4774796-14.1603726-2.48481805-30.5961106 4.4019393-43.65428155q.6111897-1.15714005 1.2796069-2.28337725.66727265-1.1262372 1.39062825-2.21699335.72221105-1.0919007 1.49821595-2.14603125.77486035-1.05413055 1.60237-2.0693464.8263651-1.01521585 1.7030904-1.98808335.87558075-.97172295 1.79808805-1.899953.92365185-.92823005 1.8907966-1.8106781.9682893-.8813035 1.9777824-1.71339135 1.01063765-.8332324 2.06019-1.61496005 1.0506969-.78172765 2.1380194-1.50966145 1.0873225-.72907835 2.2089815-1.4032183 1.121659-.67413995 2.27650995-1.29219695 1.1537064-.618057 2.3371711-1.1788865 1.18232015-.55968495 2.3921095-1.06099785t2.44132515-.94196465q1.23268035-.44065175 2.4859626-.8194978c10.4337178-3.11889875 37.7541263-3.05709305 48.74066175-1.11135805q3.6236453.61004515 7.09621 1.8129672 3.47142015 1.20292205 6.69676205 2.9643845c13.71285355 7.5425845 21.8700614 20.81593085 26.164413 35.4673154.66040535 2.90372335 1.1834647 5.9653946 2.0212753 8.81646865.3044503 4.40766205-.08355215 8.7947222-.6844409 13.16575865-3.0628158 14.26223755-7.94889975 23.440384-17.87443735 34.12246915-6.65098005 5.3496267-13.22756435 8.9114663-21.1764641 11.97084845-10.93159705 2.54891285-33.64404725 2.10482745-44.75762775.15909245-4.7269915-.82750965-9.07971515-2.2501853-13.56635115-3.93152925-13.29165915-7.62613665-21.2542935-16.1541787-27.3455886-30.28593755Z"/>
  <path fill="#B8F2E6" d="M748.4647379 736.79147245c12.0475333-.41776075 25.5646688-1.9823606 35.42038885 6.48845395 5.78341115 4.97078065 8.92634545 12.1505428 9.46886215 19.67366995.61004515 8.4650918-1.8450146 17.57227615-7.57348735 23.95199785-5.80172395 6.45869565-12.36114 7.90540685-20.5996109 8.41587615-11.57254505.183128-26.75614535 2.1769341-36.26277765-5.73991825-6.3202051-5.26378545-9.5821726-13.55490565-10.0903528-21.6205495-.5196257-8.2430491 1.58520175-16.73446555 7.2495797-22.9550948 6.2446648-6.85699905 13.68080615-7.78637365 22.387398-8.21443535Z"/>
  <path fill="#FFA69E" d="M537.94880095 273.2658907c5.41944425-3.9647212 12.0704243-7.0366934 17.98660325-10.2437225 6.65326915 2.80529205 9.5569925 10.3169737 14.57813335 15.0142069 5.00282805-2.69999345 9.97704235-5.50185185 15.0828799-8.00383815l205.7420189 116.3297729c20.6751512 11.5714005 41.1030796 23.55369445 61.89383035 34.9179314 3.4130481 1.86447195 6.6658592 4.1959203 10.09378645 5.9653946-3.5229249 2.23530615-7.4121058 3.85598895-11.102135 5.79943485q-10.32269645 5.50871915-20.55497345 11.18568715l-80.7388461 44.5435969c-16.2571882 8.94923645-33.2880922 17.3948709-48.8104793 27.52986115-.0091564 2.3783749.24607825 3.91092735 1.19834385 6.0867169.03319195.0732512.06066115.14764695.091564.2220427q-38.5072402 21.93530075-77.24224585 43.4654308c-12.34397175 6.8558545-24.62270415 14.21187735-37.20588685 20.60075545.2105972 17.7107667.7737158 35.6550216.3456541 53.34633095l-.6592608 3.29973765c-.2952939 1.5039387-.72678925 2.1586213-1.6595975 3.3077495-1.79350985.92594095-2.98155275 1.1102135-4.98909345 1.16400735l.1007204-61.26661695c-8.49141645-5.57052485-17.9854587-10.12812295-26.88433495-15.06113345q-30.2596129-16.96108645-60.9701785-33.0912296c-32.43540245-17.43035195-64.35461285-36.04531315-96.5611053-53.92089505-30.9440538-17.17626185-62.42719065-33.6612155-92.58379405-52.18804635l.0320474 69.53484615c-.10415405 2.53288915.17740525 6.28930225-1.8610383 8.14576235-2.3875313 2.17578955-15.03137515.961422-18.91368875 1.16171825-.12704505-14.5449414-.40173705-29.12078565.01487915-43.6622934-.4967347-17.10987795-.0320474-34.35137915-.00343365-51.4749917 22.6666682-13.5400265 45.9582607-26.2010386 68.94883655-39.19053655 27.27577105-15.41136575 54.3409449-31.09170075 81.90972075-45.9857299 14.88945095-8.04275285 29.03837805-17.8641364 44.33872245-25.0816687 9.0213431-6.0867169 19.48367465-11.1296042 29.0074752-16.4563399 9.5112105-5.32101295 19.38295425-11.7293484 29.37487575-15.9939417Z"/>
  <path fill="#C3FFD3" d="M502.82713965 332.7802016c26.47229695-14.04019485 51.94311265-30.00666735 78.5298646-43.9163835l.06295025 6.33050605c-8.6436416 2.4630716-17.20144195 9.2800114-25.0290194 13.74719005q-20.464554 11.7705522-41.43271 22.6185971l37.3169082 20.06052785c9.8408409 5.26607455 19.65077895 10.23571065 28.96512685 16.42772615.41089345 1.1857538.54823945 1.81411175.3342086 3.05709305-.17969435.2151754-.36053325.42920625-.53679395.64667075-.83208785 1.0255168-1.17774195 1.52797425-1.53484155 2.80300295-8.36093775-3.48286565-16.6119987-8.7420729-24.6032468-13.0776283q-26.15869025-14.12718065-52.0724468-28.69730215Z"/>
  <path fill="#B0D6E0" d="M418.8183142 473.0768515c24.3148202-13.9543536 49.41823535-26.52952445 73.8623897-40.25038985l.0160237 11.2509265c-4.90668585-.5791423-8.25335005 1.96519235-12.4137893 4.19248665-7.141992 4.30694165-14.7074675 8.07022205-22.066924 12.0063295-9.08200425 4.85632565-18.11937105 9.9278267-27.5310057 14.123747 9.83511815 4.85174745 19.1551888 10.6054003 28.91476665 15.57847005 10.83545485 5.52016465 22.00626285 10.2460116 32.5853385 16.27664555 1.1720192 2.1723559.47956645 6.26183305.3685451 8.7603857q-37.3741357-20.07884065-73.73534465-41.9386011ZM589.6858946 479.44856135q37.90635145 19.6152979 74.90736385 40.8879042-36.70228485 21.2520044-73.8074513 41.7943878c-.52763755-2.9323371-.68329635-5.77425475-.7920286-8.7397838 20.281426-11.5736896 41.3297005-22.1905354 62.00370715-33.0706277-10.33185285-5.95166-21.52326275-10.8457558-32.1137839-16.39110055-10.04571535-5.2603518-19.7434875-11.3058649-29.9780536-16.161046-.1579479-2.77324465-.1854171-5.54305565-.2197536-8.31973395Z"/>
  <path fill="#C3FFD3" d="M589.7087856 393.1254558c-.13162325-.16367065-.30330575-.3021612-.39715885-.49101195-.9774457-1.96748145-.6615499-5.40799875.14535785-7.37204655 25.6905693 14.306875 51.73938275 27.9567783 77.3555563 42.394132-25.02787485 13.9039934-50.48495595 27.01481365-75.4647597 41.0023592-1.0461187-2.82131575-1.64929655-5.27980915-1.3139434-8.29684295 20.8903266-10.2208315 40.8398331-22.11156145 61.4714914-32.80394755-12.45842675-7.0870536-25.27509765-13.5240028-37.7609936-20.55497345-8.05419835-4.5369962-15.73641795-9.79620345-24.03555-13.87766875ZM502.3361277 427.29370695c26.0865836-14.62849355 52.61839715-28.36767175 78.88353055-42.6573785.13391235 2.68625885.297583 5.3473376.1671043 8.0370301l-38.3355577 20.8514119c-8.70888095 4.73271425-17.42577375 9.88090015-26.6039202 13.65791515 15.314079 7.0778972 30.11654415 15.24197235 44.9006965 23.35225365 6.5308023 3.5824415 13.1142539 7.7486035 19.8785444 10.83087665-.64209255 2.403555-1.1857538 4.5690436-2.66565695 6.62579995-8.25106095-3.79876145-16.0855057-8.41587615-24.06645285-12.7388415-17.32505335-9.38416545-34.5814337-19.0613357-52.15828805-27.9590674ZM501.2350706 345.9905977c-.0732512-.11788865-.1785498-.2220427-.2197536-.3548105-.77257125-2.5157209.02403555-5.52016465.8378106-7.9179969l46.6175215 25.01871845c10.48522255 5.64606515 21.39507315 11.02545015 31.3354899 17.6008899l-78.3032437 42.2819661c-.3914361-2.57409295-.5585404-5.07150105-.66040535-7.668485 7.691376-2.52373275 14.9684249-7.85733575 21.93758985-11.9193437 13.79068295-8.03588555 27.62600335-16.3373067 42.38154195-22.4972748-8.6230397-5.10125935-17.75998235-9.29717965-26.62795575-13.95091995q-18.8278475-9.97246415-37.2985954-20.5927436Z"/>
  <path fill="#FAF1DE" d="M537.94880095 273.2658907c5.41944425-3.9647212 12.0704243-7.0366934 17.98660325-10.2437225 6.65326915 2.80529205 9.5569925 10.3169737 14.57813335 15.0142069-6.93711755 4.0585743-13.9337517 8.4902719-21.1993551 11.9307892-15.4079321 9.75499965-31.9695706 18.198345-47.8559246 27.17962885-18.4226768 10.41654955-36.7469223 21.5747675-55.5839262 31.200433 1.92856675-5.8280486 48.84138215-26.1026073 56.3622202-33.2629121l.0251801-1.32882255c-1.75917335-1.49363775-5.38510775-1.09533435-7.6707741-1.465024-2.5729484-.41547165-4.92270955-1.35400265-6.3774326-3.63165715-.9980476-1.56231075-.4097489-3.47599835-.10873225-5.1756551l.1556588-.83895515c-2.86023045 1.236114-5.6014277 2.54891285-8.6940018 3.0719722 9.0213431-6.0867169 19.48367465-11.1296042 29.0074752-16.4563399 9.5112105-5.32101295 19.38295425-11.7293484 29.37487575-15.9939417Z"/>
  <path fill="#E5E5E5" d="M537.94880095 273.2658907c5.41944425-3.9647212 12.0704243-7.0366934 17.98660325-10.2437225 6.65326915 2.80529205 9.5569925 10.3169737 14.57813335 15.0142069-6.93711755 4.0585743-13.9337517 8.4902719-21.1993551 11.9307892 2.84420675-5.9791292 13.65333695-5.56594665 16.5456148-11.43062085.05150475-1.16400735.0091564-1.8633274-.50016835-2.9437826-.4303508-.90991725-7.6776414-9.8042153-8.67683355-10.9075615-5.3198684 1.16629645-13.3500312 8.3208785-17.80347525 8.56237855-.31017305.01716825-.6203461.01259005-.93051915.0183128Z"/>
  <defs>
    <linearGradient id="p" x1="420.60886" x2="403.6897" y1="393.79272" y2="428.12976" gradientUnits="userSpaceOnUse">
      <stop offset="0" stop-color="#E5E5E5"/>
      <stop offset="1" stop-color="#C3FFD3"/>
    </linearGradient>
  </defs>
  <path fill="url(#p)" d="M419.626 391.656c3.635-1.946 6.559-4.169 10.846-3.663.012 2.568.083 5.149-.055 7.715.145 6.461 1.098 42.915-.392 46.61-9.243-5.269-19.003-9.398-28.47-14.221-8.527-4.345-16.67-9.372-25.263-13.611 8.223-3.666 16.119-8.097 24.054-12.34 6.43-3.439 13.04-6.727 19.28-10.49Z" transform="scale(1.14455)"/>
  <path fill="#E5E5E5" d="M480.2829383 448.2698748c4.16043925-2.2272943 7.50710345-4.77162895 12.4137893-4.19248665.0137346 2.9392044.09499765 5.89328795-.06295025 8.83020325-.9888912 1.04497415-.65582715 1.3368344-.63980345 2.7171617l-.69245275.22089815c-2.7217399-1.0346732-5.7799775-2.2593417-8.23961545-3.8479771-1.89194115-1.2223794-2.29024455-1.5588771-2.7789674-3.72779935Z"/>
  <path fill="#C3FFD3" d="M589.9056482 487.7682953c10.2345661 4.8551811 19.93233825 10.9006942 29.9780536 16.161046 10.59052115 5.54534475 21.78193105 10.43944055 32.1137839 16.39110055-20.67400665 10.8800923-41.72228115 21.4969381-62.00370715 33.0706277q.35595505-32.8119594-.08813035-65.62277425Z"/>
  <path fill="#B0D6E0" d="M589.7087856 393.1254558c8.29913205 4.0814653 15.98135165 9.34067255 24.03555 13.87766875 12.48589595 7.03097065 25.30256685 13.46791985 37.7609936 20.55497345-20.6316583 10.6923861-40.5811648 22.58311605-61.4714914 32.80394755.76112575-9.2616986.1259005-19.0201319.08813035-28.34249165-.05150475-12.90480125.3639669-26.0201997-.41318255-38.8940981ZM501.2350706 345.9905977q18.4707479 10.62027945 37.2985954 20.5927436c8.8679734 4.6537403 18.00491605 8.8496606 26.62795575 13.95091995-14.7555386 6.1599681-28.590859 14.46138925-42.38154195 22.4972748-6.96916495 4.06200795-14.24621385 9.39561095-21.93758985 11.9193437-.81377505-11.5439313-.01487915-23.60863285.274692-35.1880452q.3113176-16.88554615.11788865-33.77223685ZM514.9582251 331.5601113q20.968156-10.8480449 41.43271-22.6185971c7.82757745-4.46717865 16.3853778-11.28411845 25.0290194-13.74719005-.36968965 24.24271355.76341485 48.65367595-.17969435 72.85404115-9.3143479-6.1920155-19.12428595-11.1616516-28.96512685-16.42772615l-37.3169082-20.06052785Z"/>
  <path fill="#C3FFD3" d="M402.30818045 389.25802135c2.7675219 9.29031235 2.85794135 63.9757668-.10415405 73.3381858-.07897395.25065645-.1510806.50245745-.23234365.75196935-.04921565.14993605-.10415405.297583-.15680335.4463745l-65.834516-36.5317469c8.18925525-5.7731102 17.33192065-10.49437895 26.049958-15.40907665l40.27785905-22.5957061Z"/>
  <path fill="#B0D6E0" d="M581.21965825 384.63632845c1.5428534-.8858817 2.952939-1.8701947 4.8139773-1.38376095 1.14798365.30101665 2.49855265 1.29448605 3.42334905 2.0098298-.80690775 1.9640478-1.12280355 5.4045651-.14535785 7.37204655.0938531.18885075.2655356.3273413.39715885.49101195.77714945 12.8738984.3616778 25.98929685.41318255 38.8940981.03777015 9.32235975.6729954 19.08079305-.08813035 28.34249165-.33535315 3.0170338.2678247 5.4755272 1.3139434 8.29684295-1.90109755 1.16171825-4.04827335 2.0785028-6.04436855 3.0811286-2.3325929-1.13882725-4.532418-2.38867585-6.74254405-3.74840125 1.47990315-2.05675635 2.0235644-4.22224495 2.66565695-6.62579995-6.7642905-3.08227315-13.3477421-7.24843515-19.8785444-10.83087665-14.78415235-8.1102813-29.5866175-16.27435645-44.9006965-23.35225365 9.17814645-3.777015 17.89503925-8.9252009 26.6039202-13.65791515l38.3355577-20.8514119c.1304787-2.6896925-.03319195-5.35077125-.1671043-8.0370301Z"/>
  <path fill="#EAFADE" d="M581.21965825 384.63632845c1.5428534-.8858817 2.952939-1.8701947 4.8139773-1.38376095 1.14798365.30101665 2.49855265 1.29448605 3.42334905 2.0098298-.80690775 1.9640478-1.12280355 5.4045651-.14535785 7.37204655.0938531.18885075.2655356.3273413.39715885.49101195.77714945 12.8738984.3616778 25.98929685.41318255 38.8940981.03777015 9.32235975.6729954 19.08079305-.08813035 28.34249165-.33535315 3.0170338.2678247 5.4755272 1.3139434 8.29684295-1.90109755 1.16171825-4.04827335 2.0785028-6.04436855 3.0811286-2.3325929-1.13882725-4.532418-2.38867585-6.74254405-3.74840125 1.47990315-2.05675635 2.0235644-4.22224495 2.66565695-6.62579995-1.46159035-10.1796277-.23005455-21.47061345.02861375-31.7841535q.3387868-18.45357965.13162325-36.90830385c.1304787-2.6896925-.03319195-5.35077125-.1671043-8.0370301Z"/>
  <path fill="#C3FFD3" d="M305.62346375 423.8337323c-2.2066924-2.4768062-4.62054835-4.5507308-6.22749655-7.49565795l.59173235-.12933415c3.83309795 2.30169005 6.64182365 5.74449645 7.7806509 10.1201111.76570395 1.51652875 1.81640085 2.07964735 3.2138964 2.93805985 5.0383091 3.08914045 10.35932205 5.7753993 15.48232785 8.72948285q25.1022706 14.5838561 50.48495595 28.6732666 59.539491 33.7550686 119.68444895 66.4205256l58.59752635 32.56359205c10.07089545 5.5304656 19.93691645 11.54507585 30.5777978 15.9412924 26.9816217-14.7440931 53.74692345-30.09594225 80.52023705-45.22918235 11.90904275-6.7322431 23.65670395-13.73116635 35.7900785-20.0616724-.0091564 2.3783749.24607825 3.91092735 1.19834385 6.0867169.03319195.0732512.06066115.14764695.091564.2220427q-38.5072402 21.93530075-77.24224585 43.4654308c-12.34397175 6.8558545-24.62270415 14.21187735-37.20588685 20.60075545.2105972 17.7107667.7737158 35.6550216.3456541 53.34633095l-.6592608 3.29973765c-.2952939 1.5039387-.72678925 2.1586213-1.6595975 3.3077495-1.79350985.92594095-2.98155275 1.1102135-4.98909345 1.16400735l.1007204-61.26661695c-8.49141645-5.57052485-17.9854587-10.12812295-26.88433495-15.06113345q-30.2596129-16.96108645-60.9701785-33.0912296c-32.43540245-17.43035195-64.35461285-36.04531315-96.5611053-53.92089505-30.9440538-17.17626185-62.42719065-33.6612155-92.58379405-52.18804635l.0320474 69.53484615c-.10415405 2.53288915.17740525 6.28930225-1.8610383 8.14576235-2.3875313 2.17578955-15.03137515.961422-18.91368875 1.16171825-.12704505-14.5449414-.40173705-29.12078565.01487915-43.6622934.0869858.1739716.19113985.3410759.2609574.52305935.53450485 1.38376095.7943177 2.36807395 1.65158565 3.62936805 4.10778995.6913082 13.16804775 2.93577075 16.73217645.62606885.63980345-.4143271 1.39062825-.89618265 1.5039387-1.693934.755403-5.27980915-.2701138-12.17228925-.4257726-17.61347995-.28270385-9.84313.1487915-19.34175045 1.52797425-29.08644915Z"/>
  <path fill="#B0D6E0" d="M492.1450545 339.107274c1.2635832-.8813035 2.54891285-1.83929185 4.0196596-2.34060475 2.22843885-.7599812 3.71635385-.03090285 5.6884135.95112105-.81377505 2.39783225-1.61038185 5.402276-.8378106 7.9179969.0412038.1327678.1465024.23692185.2197536.3548105q.19342895 16.8866907-.11788865 33.77223685c-.28957115 11.57941235-1.08846705 23.6441139-.274692 35.1880452.10186495 2.59698395.26896925 5.09439205.66040535 7.668485-.9339528.4944456-1.8747729 1.0209386-2.91974705 1.24870405-2.5798157.56197405-4.5690436-.9751566-6.65098005-2.25590805-7.59637835-4.3882047-15.6551549-8.15034055-23.3671328-12.36457365l-51.5459538-28.5130296c24.88823975-14.15922805 50.2091194-27.52528295 75.1259729-41.6272835Z"/>
  <path fill="#EAFADE" d="M492.1450545 339.107274c1.2635832-.8813035 2.54891285-1.83929185 4.0196596-2.34060475 2.22843885-.7599812 3.71635385-.03090285 5.6884135.95112105-.81377505 2.39783225-1.61038185 5.402276-.8378106 7.9179969.0412038.1327678.1465024.23692185.2197536.3548105q.19342895 16.8866907-.11788865 33.77223685c-.28957115 11.57941235-1.08846705 23.6441139-.274692 35.1880452.10186495 2.59698395.26896925 5.09439205.66040535 7.668485-.9339528.4944456-1.8747729 1.0209386-2.91974705 1.24870405-2.5798157.56197405-4.5690436-.9751566-6.65098005-2.25590805l.13620145-7.22325505c.7485357-23.00888865.33077495-46.1642797.3181849-69.19148115.10873225-1.99723975-.137346-4.0883326-.24150005-6.09015055Z"/>
  <path fill="#C3FFD3" d="M580.6828643 479.56301635c1.0049149-.6707063 1.9732042-1.37918275 3.1635362-1.68821125 2.357773-.61233425 3.93610745.3639669 5.8394941 1.57375625.0343365 2.7766783.0618057 5.5464893.2197536 8.31973395q.4440854 32.81081485.08813035 65.62277425c.10873225 2.96552905.26439105 5.8074467.7920286 8.7397838l-5.9791292 3.7129202-4.56789905-2.82131575c-25.51316405-13.4209933-50.53302705-27.74503655-75.74288535-41.72457025 9.44139295-6.26412215 19.96896385-11.27267295 29.95172895-16.6303115l46.2352418-25.1045597Z"/>
  <path fill="#FF7977" d="M580.6828643 479.56301635c1.0049149-.6707063 1.9732042-1.37918275 3.1635362-1.68821125 2.357773-.61233425 3.93610745.3639669 5.8394941 1.57375625.0343365 2.7766783.0618057 5.5464893.2197536 8.31973395q.4440854 32.81081485.08813035 65.62277425c.10873225 2.96552905.26439105 5.8074467.7920286 8.7397838l-5.9791292 3.7129202-4.56789905-2.82131575c2.3600621-10.392514 1.3551472-21.94903535 1.33797895-32.5716039-.02632465-16.9897002-.0137346-33.9130165-.89389355-50.88783755Z"/>
  <path fill="#B0D6E0" d="M492.6807039 432.82646165c1.09991255-.6707063 2.2364507-1.3208107 3.4588301-1.7442942 2.0075407-.69474185 3.4977448-.06066115 5.2717973.8034741 26.1758585 14.15693895 52.43755825 28.09297975 78.29523185 42.82791645-16.31098205 9.6622911-32.98249735 18.5508664-49.7329866 27.41540615-9.7446987 5.1573423-20.37299 9.8637319-29.3531293 16.2823683-3.03649115.00114455-5.6105841-1.8267018-8.0667884-3.39587985.11102135-2.49855265.8034741-6.5880298-.3685451-8.7603857 1.7053795-4.22911225.61462335-45.95253795.4486636-53.3474755.1579479-2.9369153.07668485-5.89099885.06295025-8.83020325l-.0160237-11.2509265Z"/>
  <path fill="#EAFADE" d="M492.6807039 432.82646165c1.09991255-.6707063 2.2364507-1.3208107 3.4588301-1.7442942 2.0075407-.69474185 3.4977448-.06066115 5.2717973.8034741-.18885075 2.33144835-.9705784 5.88413155-.3067394 8.0713666.0961422 1.7259814.2655356 3.40732535.06752845 5.12872855-1.25328225 7.3411437-.88244805 15.03366425-.87558075 22.456071.01716825 16.8981362.95798835 33.99885775.32390765 50.86952475-3.03649115.00114455-5.6105841-1.8267018-8.0667884-3.39587985.11102135-2.49855265.8034741-6.5880298-.3685451-8.7603857 1.7053795-4.22911225.61462335-45.95253795.4486636-53.3474755.1579479-2.9369153.07668485-5.89099885.06295025-8.83020325l-.0160237-11.2509265Z"/>
  <path fill="#C3FFD3" d="M501.1045919 439.95700815c21.5770566 10.87665865 42.42274575 23.4678532 63.7766151 34.8240783-20.807919 12.23180585-42.691715 22.46408285-63.72511035 34.26668245l.0160237-63.9620322c.19800715-1.7214032.02861375-3.40274715-.06752845-5.12872855Z"/>
  <path fill="#B0D6E0" d="M581.35700425 288.8638181c1.56688895-.9637111 2.60614035-2.0029625 4.5461526-1.5909245 5.13559585 1.08846705 10.7931065 5.06692285 14.9684249 8.18238795 15.5956383 7.2610252 30.3626224 16.22399625 45.2211705 24.8619151 6.9336839 4.02996055 14.64909545 7.8149874 21.1718859 12.42866845-8.10684765 4.95246785-35.13882955 21.1421276-42.40901115 22.95852845-13.1005193 8.01528365-26.9816217 14.1649508-40.2927382 21.7166917l-5.06005555-2.8659532c.3570996-1.2750287.7027537-1.77748615 1.53484155-2.80300295.1762607-.2174645.3570996-.43149535.53679395-.64667075.21403085-1.2429813.07668485-1.87133925-.3342086-3.05709305.9431092-24.2003652-.1899953-48.6113276.17969435-72.85404115l-.06295025-6.33050605Z"/>
  <path fill="#C3FFD3" d="M581.35700425 288.8638181c1.56688895-.9637111 2.60614035-2.0029625 4.5461526-1.5909245 5.13559585 1.08846705 10.7931065 5.06692285 14.9684249 8.18238795 3.88803635 5.58883765 24.37090315 11.45351185 24.51053825 16.6921172l-1.7214032.75883665c-7.5402954-3.1658253-14.3114532-7.7943855-21.45230065-11.73736025-4.19706485-2.3165692-8.8153241-4.07803165-12.74914245-6.80892795q-.2037299 36.2295857-.0045782 72.4568823c8.87369615-4.3996502 17.51504865-9.25368675 26.37844385-13.6407469 9.04308955-4.4774796 32.94816085-15.01077325 39.43089205-21.44772245.8080523-1.3940619.87329165-1.7717634 2.3005455-2.45505975 2.6645124.17740525 4.8574702 2.08422555 7.14084745 3.3626879-6.13135435 3.4428064-37.11661195 18.83814845-39.84979735 23.06840525-13.1005193 8.01528365-26.9816217 14.1649508-40.2927382 21.7166917l-5.06005555-2.8659532c.3570996-1.2750287.7027537-1.77748615 1.53484155-2.80300295.1762607-.2174645.3570996-.43149535.53679395-.64667075.21403085-1.2429813.07668485-1.87133925-.3342086-3.05709305.9431092-24.2003652-.1899953-48.6113276.17969435-72.85404115l-.06295025-6.33050605Z"/>
  <path fill="#EAFADE" d="M402.30818045 389.25802135c3.34094145-2.05675635 6.65098005-4.15357195 10.1498694-5.93449175 15.28546525 7.67420775 30.09136405 16.07749385 45.0426207 24.3606022 11.74422755 6.5056222 23.6395357 12.6610121 34.99919445 19.8419188-14.6227708 9.24910855-30.08449675 17.10301065-45.26580795 25.3792517-11.03918475 6.0180439-21.860905 12.77432255-33.5170022 17.5459515-3.9486975-2.24217345-7.874504-4.56103175-11.90217545-6.6567028.0526493-.1487915.1075877-.29643845.15680335-.4463745.08126305-.2495119.1533697-.5013129.23234365-.75196935 2.9620954-9.362419 2.87167595-64.04787345.10415405-73.3381858Z"/>
  <path fill="#C3FFD3" d="M413.24321115 393.1895506c21.03797355 8.9137554 43.92897355 22.982564 64.14859385 34.07439805q-12.08530345 6.6177881-23.9188059 13.67622795c-13.64189145 7.5906556-27.32613125 14.87915-41.4166863 21.6159713.08355215-23.10503085 1.0690097-46.23982 1.18689835-69.3665973Z"/>
  <path fill="#B0D6E0" d="m488.2604518 302.6442001-.1556588.83895515c-.30101665 1.69965675-.88931535 3.61334435.10873225 5.1756551 1.45472305 2.2776545 3.8044842 3.2161855 6.3774326 3.63165715 2.28566635.36968965 5.91160075-.02861375 7.6707741 1.465024l-.0251801 1.32882255c-7.52083805 7.1603048-54.43365345 27.4348635-56.3622202 33.2629121-20.5423834 12.635832-41.82757975 23.7997727-62.8678424 35.5520121-16.7150082 9.33609435-33.10610875 19.26163195-49.7627449 28.70416945-8.36093775 4.738437-17.29758415 8.7535184-25.4753939 13.7254436-1.13882725-4.37561465-3.94755295-7.81842105-7.7806509-10.1201111l-.59173235.12933415c1.6069482 2.94492715 4.02080415 5.01885175 6.22749655 7.49565795-1.37918275 9.7446987-1.8106781 19.24331915-1.52797425 29.08644915.1556588 5.4411907 1.1811756 12.3336708.4257726 17.61347995-.11331045.79775135-.86413525 1.2796069-1.5039387 1.693934-3.5641287 2.3097019-12.6243865.06523935-16.73217645-.62606885-.85726795-1.2612941-1.1170808-2.2456071-1.65158565-3.62936805-.06981755-.18198345-.1739716-.34908775-.2609574-.52305935-.4967347-17.10987795-.0320474-34.35137915-.00343365-51.4749917 22.6666682-13.5400265 45.9582607-26.2010386 68.94883655-39.19053655 27.27577105-15.41136575 54.3409449-31.09170075 81.90972075-45.9857299 14.88945095-8.04275285 29.03837805-17.8641364 44.33872245-25.0816687 3.0925741-.52305935 5.83377135-1.8358582 8.6940018-3.0719722ZM755.9890096 383.3395533c5.68726895-.1167441 66.910393 37.2551025 77.0877316 43.27200185-26.18844855 14.99474955-52.7385749 29.42752505-79.07123675 44.1750518-25.5898489-14.74752675-51.8778733-28.38598455-77.5455516-43.0282127 26.17471395-15.4262449 54.0479401-27.77250575 79.52905675-44.41884095Z"/>
  <path fill="#C3FFD3" d="M671.2213475 430.25809145c9.14838815 3.1063087 18.2372597 9.1770019 26.71265245 13.88911425l51.51962915 29.0990392c-11.51760665 7.15687115-23.50333425 13.414126-35.38605235 19.9266155l-44.79196425 24.88823975q-39.3313162-22.1951136-79.0838268-43.6256678c26.7412662-15.1950458 54.091433-29.32222645 81.0295618-44.1773409Z"/>
  <path fill="#B0D6E0" d="M677.6399839 441.64865305q16.4265816 8.0553429 32.4617271 16.86494425c8.88971985 4.87006025 19.00067455 12.06927975 28.6915794 14.7852969-7.12253465 4.2508587-14.86884905 7.73830255-22.2889667 11.4569455-13.07419465 6.3911672-26.00989875 13.2447326-38.79223315 20.20016295.52305935-21.1215257-.434929-42.20070305-.07210665-63.3073496ZM667.8517923 440.0680295c3.59960975 4.85861475 1.34255715 60.0179129 1.1399718 69.50966605q-19.29596845-11.19026535-38.8368706-21.94903535-12.7342633-7.14542565-25.90688925-13.44502885c21.7052462-10.117822 42.77297805-22.3004122 63.60378805-34.11560185Z"/>
  <path fill="#C3FFD3" d="M670.8482242 335.26959785c5.9882856 1.41580835 17.53793965 8.80960135 23.4289385 12.0910262l58.80583445 33.4300164c-26.1850149 15.6505767-54.05366285 28.7419396-80.55915175 43.91066075-6.90507015-1.0941898-71.40732995-38.0242401-82.6250645-44.37534805 10.3307083-6.84784265 21.61940495-12.28216605 32.50636455-18.1823213q24.3743368-13.162325 48.44307875-26.874034Z"/>
  <path fill="#B0D6E0" d="M677.03680605 345.356517c7.5792101 3.1566689 14.7944533 7.7920964 22.0623458 11.6354953l44.6076917 23.4289385c-8.4215989 3.00673285-16.2365863 7.30337355-24.12139125 11.47411375L677.61823745 413.960844c-.81377505-8.6047269-.3387868-17.1842737-.3639669-25.80845795q-.23463275-21.39736225-.2174645-42.79586905ZM668.35424975 345.5556687l.8309433.4738437c2.0533227 7.0321152-.0640948 57.8615807-.2037299 68.9797394-13.93260715-6.85470995-27.3913706-14.7326476-40.9542881-22.2935449q-11.6171825-6.27098945-23.4930333-12.0360878c21.25772715-11.7522394 42.6528003-23.19430575 63.820108-35.1239504Z"/>
  <path fill="#FFA69E" d="M305.1004044 432.2690658c30.1566034 18.52683085 61.63974025 35.0117845 92.58379405 52.18804635 32.20649245 17.8755819 64.12570285 36.4905431 96.5611053 53.92089505q30.7105656 16.13014315 60.9701785 33.0912296c8.89887625 4.9330105 18.3929185 9.4906086 26.88433495 15.06113345l-.1007204 61.26661695c-.01259005 6.3087596.6592608 13.47249805-.49330105 19.66680265 1.52339605-2.11856205 3.9967686-2.44819245 6.37857715-3.0696831l.71076555.2609574.88702625-.7851613-.0938531 1.3803273c.01716825 3.65225905.20945265 7.39951575-.0206019 11.0380402q.16138155 17.32734245.01716825 34.65582945l-6.42664825.0663839c-4.13525915.19571805-9.07742605-.2678247-13.06503825.57570865 9.8087935 14.09513325 22.7559431 25.29569955 33.5215804 38.57247955 5.3862523 5.5876931 11.2326137 11.42833175 15.66774495 17.80118615 2.1265739 1.52797425 3.71406475 3.78502685 5.37366225 5.79256755l.1625261 48.17983225c6.1141861-.01259005 21.47748075 1.0117822 26.4528396-.480711.3731233-1.42496475.5631186-2.68854795.68100725-4.14670465l-.00343365-2.5019863c-1.14569455-2.9598063-.5356494-8.39298515-.5470949-11.63435075 7.0321152-4.1272473 30.5663523-9.7607224 40.06726185-13.23672075 2.29482275-.8400997 2.82360485-1.2315358 3.8411098-3.47828745 6.0912951 14.13175885 14.05392945 22.6598009 27.3455886 30.28593755 4.486636 1.68134395 8.83935965 3.1040196 13.56635115 3.93152925 11.1135805 1.945735 33.8260307 2.3898204 44.75762775-.15909245-7.70396605 2.8636641-14.65024 7.40180485-21.78879835 11.41688625q-10.9831018 6.06725955-22.0394548 12.00060675-50.9874134 28.24634945-101.6635092 57.0535284c-16.4632072 9.3326607-32.79250205 19.5283121-49.75931125 27.8881053-68.23692645-40.5514065-139.2619767-76.57840685-206.89229165-118.08665715-1.0735879-.65811625-1.236114-1.0209386-2.53517825-.7805831-.32390765 1.8473037-.25294555 3.70490835-.2495119 5.5739585l-.0045782 5.64377605c-9.5157887.0480711-19.05332385-.02632465-28.5633898.34222045l-.06295025-10.9510544c.51161385-17.3536671-.03777015-34.80691005.04005925-52.17202265l-.8675689 3.4519628c.26210195 4.1684511.22776545 8.27853015.1259005 12.45155945-5.8692524-2.8339058-11.41917535-6.4712857-17.35252255-9.10947345-7.4807788-4.51982795-15.37702925-8.5429212-23.0260569-12.78118985l-.0526493-21.5816348q-.0206019-35.0598556-.55968495-70.11627755c.28728205-2.9826973.1213223-6.1920155.16367065-9.1998929l-.1236114-27.3455886c.6203461-26.87517855.114455-53.95980975-.1693934-80.8464338.0709621-13.757491.6089006-27.8423233-.26668015-41.55975505l-.0320474-69.53484615Z"/>
  <defs>
    <linearGradient id="q" x1="513.27679" x2="509.14972" y1="597.58105" y2="586.21667" gradientUnits="userSpaceOnUse">
      <stop offset="0" stop-color="#E3DCCE"/>
      <stop offset="1" stop-color="#B9B1AA"/>
    </linearGradient>
  </defs>
  <path fill="url(#q)" d="M508.065 583.167c1.331-1.851 3.492-2.139 5.573-2.682l.621.228.775-.686-.082 1.206c.015 3.191.183 6.465-.018 9.644l-.931.491c-.391 2.111.216 5.061-.86 6.807-.179.025-.358.048-.536.076-1.466.224-2.29.334-3.401 1.415-.248 1.121-.477 2.238-.68 3.367-.355-6.231-.096-12.615-.103-18.863l-.358-1.003Z" transform="scale(1.14455)"/>
  <path fill="#DBD1BE" d="M581.50579575 667.46378985c1.52339605-2.11856205 3.9967686-2.44819245 6.37857715-3.0696831l.71076555.2609574.88702625-.7851613-.0938531 1.3803273-.5356494.83208785c-.4189053.6569717-.52534845.984313-.778294 1.71339135-.41776075 1.20521115-1.6412847 2.04073265-2.5821048 2.85565225-1.3917728.31017305-1.45472305.39258065-2.72975175-.21174175l-.846967-1.82784635-.4097489-1.14798365Z"/>
  <defs>
    <linearGradient id="r" x1="515.70605" x2="507.71344" y1="619.10382" y2="599.42889" gradientUnits="userSpaceOnUse">
      <stop offset="0" stop-color="#BFDAE0"/>
      <stop offset="1" stop-color="#E3D4C6"/>
    </linearGradient>
  </defs>
  <path fill="url(#r)" d="M508.526 603.033c.203-1.129.432-2.246.68-3.367 1.111-1.081 1.935-1.191 3.401-1.415.178-.028.357-.051.536-.076 1.076-1.746.469-4.696.86-6.807l.931-.491q.141 15.139.015 30.279l-5.615.058-.797-.241c-1.09-3.264-.109-13.845-.011-17.94Z" transform="scale(1.14455)"/>
  <path fill="#B8F2E6" d="M318.07158955 735.04717825c6.6750156 3.50346755 18.79236645 11.7591067 24.46933445 14.03561665 1.52110695.61004515 3.1154651.40402615 4.70753415.27125835l.01259005 9.08658245-.8675689 3.4519628c-9.6622911-4.7361479-18.47875975-11.09412315-28.26924045-15.5841928l-.0526493-11.26122745Z"/>
  <defs>
    <linearGradient id="s" x1="293.84149" x2="289.28714" y1="655.58295" y2="627.57965" gradientUnits="userSpaceOnUse">
      <stop offset="0" stop-color="#A8D7E0"/>
      <stop offset="1" stop-color="#C3FFD3"/>
    </linearGradient>
  </defs>
  <path fill="url(#s)" d="m277.387 630.049.644-.052c2.348-.205 23.428-3.774 24.128-4.177.56-.321.826-.992 1.239-1.488l-.005 30.383c-1.391.116-2.784.296-4.113-.237-4.96-1.989-15.547-9.202-21.379-12.263-1.021-3.572-.512-8.424-.514-12.166Z" transform="scale(1.14455)"/>
  <path fill="#C3FFD3" d="M391.87675175 497.05402945c1.48677045.75654755 2.97010725 1.56231075 4.34356725 2.5111427 1.6458629 1.13653815 2.13229665 2.08422555 2.4356024 4.02080415-4.83572375 1.68592215-9.48030765 4.62970475-14.01043655 7.0550062-12.3565618 6.61664355-24.378915 13.84104315-36.69312845 20.53437155-5.38510775 2.9277589-19.63475525 8.76839755-23.26526785 12.19060205l-.13849055.82979875.5150475.35824415c5.4617926 4.6880768 12.43782485 8.3163003 18.63670765 11.94109015q17.2735486 9.9919215 34.71534605 19.68740455c6.41978095 3.60418795 13.18864965 6.9954896 19.26163195 11.13990515l-.68787455 2.10482745-2.81444845 1.8473037-.62149065.07439575c-.114455-.00114455-.22891-.0068673-.343365-.0045782-1.68134395.0343365-2.4745171-.2449337-3.9944795-.98774665-14.31030865-7.0023569-28.07466695-15.62654115-42.0645016-23.3053271-6.478153-3.5549723-22.2592084-11.1433388-27.31926395-15.11378275-1.7122468-1.3437017-1.67447665-4.28176155-2.05217815-6.3202051l-.10415405-7.67649685c7.256447-5.6060059 17.82865535-9.78475795 26.03736795-14.1855527q24.19693155-13.14286765 48.16380855-26.70120695Z"/>
  <path fill="#FAF1DE" d="M318.11279335 455.83649485c23.91995045 12.8693202 47.2790714 26.92324965 71.0582422 40.0684064-8.3895515 5.0222854-17.00915755 9.7080731-25.523465 14.5174722-15.00390595 8.85080515-30.68195185 16.57193945-45.6950142 25.454792-.85268975-26.6474131-.23692185-53.39211295.160237-80.0406706ZM317.7797293 545.61728595c.3777015 2.03844355.33993135 4.9765034 2.05217815 6.3202051 5.06005555 3.97044395 20.84111095 11.55881045 27.31926395 15.11378275 13.98983465 7.67878595 27.75419295 16.3029702 42.0645016 23.3053271 1.5199624.74281295 2.31313555 1.02208315 3.9944795.98774665.114455-.0022891.22891.00343365.343365.0045782-10.2368552 1.15027275-34.59402375 17.4269183-44.48751395 22.99973225-10.29293815 5.7982903-20.7049095 11.3150213-30.8502007 17.37999175-.86642435-28.6023045-.82064235-57.502192-.43607355-86.1113638ZM325.0636455 544.553999l-.5150475-.35824415.13849055-.82979875c3.6305126-3.4222045 17.8801601-9.26284315 23.26526785-12.19060205 12.31421345-6.6933284 24.33656665-13.917728 36.69312845-20.53437155 4.5301289-2.42530145 9.1747128-5.36908405 14.01043655-7.0550062-1.79579895 13.7597801-.5356494 27.9613565-.52992665 41.8241461.0045782 12.18373475-.9705784 25.2373275.23005455 37.31347455l-.9408201.70389825c-5.04174275-1.35629175-10.3673339-5.17451055-14.9501121-7.7257125l-33.76308045-18.89537595c-7.2381342-4.07803165-15.65858855-10.08920825-23.63839115-12.25240775ZM401.30097645 502.28462295c6.6246554 3.32262865 12.91624675 7.531139 19.4367481 11.0998459 9.7034949 5.30956745 51.0148826 26.17242485 56.5567937 31.7635516l-.16367065 1.1857538c-11.0380402 5.4617926-70.85336775 34.15680565-75.0687454 40.1416576l-.56426315-.14764695c-1.3574363-8.4147316-.39258065-18.34828105-.38571335-26.96445345l.18885075-57.0787085Z"/>
  <path fill="#C3FFD3" d="m492.0969834 553.4837781 44.57907795 23.6670049c9.67945935 5.1550532 19.8190278 10.1246893 28.9662714 16.18965975-7.1831958 3.89490365-29.2913236 14.7395149-33.7848269 19.82932875 12.09674895-6.1714136 23.2206304-13.79755025 35.6847799-19.33259405 1.13882725 10.83316575.618057 22.0600567.6478153 32.94816085l.06981755 57.91308545c-6.14279985-2.4813844-11.15135065-6.9382621-17.3101742-9.43681475-.74281295-.30101665-1.4764695-.6020333-2.22614975-.8858817 1.34484625 1.36544815 2.7125835 2.80758115 4.2714606 3.9280956 3.07769495 2.2112706 12.41493385 5.63004145 13.6315905 9.04080045.2792702.7828722.23234365 2.23301705.2357773 3.0719722.00114455.251801-.0068673.503602-.0091564.755403-8.62876245-4.9490342-17.9282312-9.13007535-26.75614535-13.7826711q-20.6980422-10.95906625-40.8306767-22.9230474c.160237 6.5536933 1.5588771 18.23153695-.38800245 24.2987965l-.28957115-.2403555c-.01716825-8.5291866-1.02666135-16.94048455-1.34484625-25.4502138-1.9732042-1.396351-4.0608634-3.1932945-6.33737335-4.01622595-.61691245-1.72712595-1.098768-4.35272365-.36282235-6.1050297.32619675-.7760049.87558075-.801185 1.58291265-1.11822535 2.3394602.39944795 4.3767592 1.42954295 6.523935 2.39783225l.2311991-.18885075c-2.53517825-1.56917805-5.6884135-2.8201712-7.5151153-5.20884705-1.1514173-10.0354144.0091564-20.4096156.12704505-30.48508925.21403085-18.29334265.16367065-36.57409525.60317785-54.86629335Z"/>
  <defs>
    <linearGradient id="t" x1="312.32455" x2="322.92346" y1="527.52539" y2="617.51019" gradientUnits="userSpaceOnUse">
      <stop offset="0" stop-color="#FAF3DD"/>
      <stop offset="1" stop-color="#C3FFD3"/>
    </linearGradient>
  </defs>
  <path fill="url(#t)" d="M344.506 516.767c1.294.861 2.66 1.688 3.895 2.627l-.294 2.95q.33 27.145.014 54.291c-.025 6.935-1.1 19.742.488 26.162l-.176 2.961c.835 6.372.611 12.962.466 19.378-.547.669-1.068 1.331-1.576 2.031-1.277.325-2.279.357-3.6.34-3.048-.04-12.694 3.008-14.452 1.371-.048-.308-.092-.617-.144-.925-.152-.908-.353-1.388-.956-2.106l-.058-4.974-9.552-.074c-3.939-.01-11.407-1.081-14.814.876-.26.939-.357 1.682-.349 2.657-.413.496-.679 1.167-1.239 1.488-.7.403-21.78 3.972-24.128 4.177l-.644.052.191-52.374c-.318-4.127-.046-8.452-.038-12.601-.078-3.288-.922-10.061 1.033-12.75 11.472-4.746 22.467-11.672 33.362-17.61 10.899-5.939 22.109-11.236 32.571-17.947Z" transform="scale(1.14455)"/>
  <defs>
    <linearGradient id="u" x1="335.48557" x2="333.87131" y1="628.37335" y2="616.01471" gradientUnits="userSpaceOnUse">
      <stop offset="0" stop-color="#6DFFD9"/>
      <stop offset="1" stop-color="#C3FFD3"/>
    </linearGradient>
  </defs>
  <path fill="url(#u)" d="M347.755 614.702c-.013-2.964-.342-6.125.678-8.944.835 6.372.611 12.962.466 19.378-.547.669-1.068 1.331-1.576 2.031-1.277.325-2.279.357-3.6.34-3.048-.04-12.694 3.008-14.452 1.371-.048-.308-.092-.617-.144-.925-.152-.908-.353-1.388-.956-2.106l-.058-4.974-9.552-.074c3.109-4.738 8.597-7.669 13.541-10.133-2.179 2.971-6.706 3.617-8.638 6.422 7.92.524 15.751-2.206 23.66-2.38.21-.005.421-.004.631-.006Z" transform="scale(1.14455)"/>
  <path fill="#C3FFD3" d="M394.3043423 591.46566985c1.4810477.98545755 3.044503 1.9320004 4.45802225 3.00673285l-.3364977 3.3764225c-8.93779095 3.43479455-17.67528565 10.30667275-26.11061915 15.0233633-17.49444675 9.78246885-35.40665425 18.81983565-52.9125465 28.59200355 11.78085315 6.5147786 71.8479817 39.19053655 76.6230443 45.575981-.389147 1.6801994-1.49821595 2.05446725-2.86938685 2.9437826-.709621.46125365-.47498825.1991517-.8263651.778294-3.74153395-1.4444221-7.62384755-4.4271194-11.17424165-6.43809375-9.55355885-5.4137215-19.18838075-11.05749755-29.11391835-15.75701985-11.14906155-6.29388045-22.51902125-12.36457365-33.57766335-18.7774873l-.8057632-3.03420205c-.0892749-3.7632804-1.0552751-11.51531755 1.18232015-14.5930125 13.1302776-5.4320343 25.71460485-13.3591876 38.1844771-20.1555255 12.47445045-6.79748245 25.30485595-12.8601638 37.27913805-20.54123885Z"/>
  <defs>
    <linearGradient id="v" x1="310.78543" x2="303.82529" y1="623.92639" y2="585.06866" gradientUnits="userSpaceOnUse">
      <stop offset="0" stop-color="#7BFFC6"/>
      <stop offset="1" stop-color="#C3FFD3"/>
    </linearGradient>
  </defs>
  <path fill="url(#v)" d="m277.54 565.074.704 2.651c9.662 5.603 19.596 10.907 29.337 16.406 8.672 4.106 17.09 9.037 25.437 13.767 3.102 1.757 6.494 4.363 9.763 5.625-.187 1.233-.209 1.374-1.286 2.141-2.801 1.994-6.8 2.786-9.393 5.002-4.944 2.464-10.432 5.395-13.541 10.133-3.939-.01-11.407-1.081-14.814.876-.26.939-.357 1.682-.349 2.657-.413.496-.679 1.167-1.239 1.488-.7.403-21.78 3.972-24.128 4.177l-.644.052.191-52.374c-.318-4.127-.046-8.452-.038-12.601Z" transform="scale(1.14455)"/>
  <path fill="#C3FFD3" d="m317.658407 646.7554467.8057632 3.03420205c11.0586421 6.41291365 22.4286018 12.48360685 33.57766335 18.7774873-5.3908305 4.02538235-25.2144365 5.0840911-33.5696515 8.04962015.0480711-4.8002427.7691376-10.88123685-.77028215-15.43883495-.3639669-4.72355785-.0526493-9.6737366-.0434929-14.42247455ZM477.9549236 547.0994782c1.6870667-.4852892 2.50770905-.7187774 4.1135127.1762607 1.72483685.961422 3.29973765 2.32687015 4.95246785 3.4153372.11331045 28.8060344 1.3482799 57.67501905 1.15256185 86.46502975-26.28230165-14.3274769-51.6832998-32.85430775-79.17195715-44.5710661l-.2495119.2861375c6.157679 5.3084229 14.1397707 8.7008691 21.24170345 12.6243865 12.2031921 6.74025495 24.21524435 13.75863555 36.33373975 20.6453929 7.4945134 4.2600151 15.680335 8.2247363 22.5728151 13.4095478.1281896 3.02046745.1350569 5.96653915.00801185 8.9870066l-.26896925 5.2237262q-.03777015 7.3525892-.1533697 14.70403385c.2243318 15.7123824.63751435 31.51747335.2243318 47.2287112q.2792702 4.6308493.3113176 9.26971045c-.19571805.0480711-.39258065.0938531-.5882987.1442133-.61920155.16138155-1.2292467.35824415-1.8358582.55968495-4.5804891 1.51881785-13.9795337 3.960143-18.52911995 2.6187304-3.38214525-1.99723975-6.8787455-3.7976169-10.346732-5.63919785.01487915-2.8064366.1556588-5.56365755.36511145-8.3597932-.11331045-1.1033462-.31475125-2.15747675-.51390295-3.2482329-5.5762476-1.50737235-18.7523072-.0412038-25.5280432-.6958864l-.6981755-.07439575c.1327678-1.34484625.2311991-2.15747675-.31704035-3.4130481-1.20292205.160237-2.01784165.03319195-2.9231807.8744362-5.0016835 4.646873-24.0035026 8.7993004-26.85457665 12.87046475-.0160237 5.9631055.0663839 11.9445238-.1854171 17.9030511l.0297583 8.59671505c.05379385 2.0624791.2815593 4.2485696-.0503602 6.28472405l-2.03615445-.32619675c-.05379385-.6501044-.091564-1.30364245-.15222515-1.9526023-.35366595-3.7953278-.11331045-7.39722665.14993605-11.193699l.00114455-4.8506029c-.11102135-5.35534945.2609574-10.71642165.53221575-16.06375925l-.2083081-3.49888935c.16595975-7.3434328.42233895-14.8860173-.5333603-22.1790899l.2014408-3.38901255c-1.8175454-7.348011-.58715415-22.00626285-.5585404-29.9437171q.3616778-31.0699543-.0160237-62.13876405l.3364977-3.3764225c-1.41351925-1.07473245-2.97697455-2.0212753-4.45802225-3.00673285l-.12933415-.19113985 2.81444845-1.8473037 3.227631-.64438165c.71076555-.7119101.9110618-1.533697 1.28075145-2.45505975l.56426315.14764695c1.42725385.16595975 2.2707872.06523935 3.61792255-.49787925 10.7473245-4.48320235 21.6823552-11.4775474 32.0771583-17.00915755l24.9832374-13.3019601c5.0909584-2.7148726 10.49895715-5.2374608 15.21450315-8.56695675Z"/>
  <path fill="#FF7977" d="m396.9894566 589.4272263 3.227631-.64438165c-.01487915 1.87362835.19113985 3.80333965-.69703095 5.5052855l-.7576921.18427255c-1.41351925-1.07473245-2.97697455-2.0212753-4.45802225-3.00673285l-.12933415-.19113985 2.81444845-1.8473037Z"/>
  <path fill="#DBD1BE" d="M487.29788525 667.18909785c-.02861375-4.6262711.2014408-8.91718905 1.3414126-13.4278606q-.03777015 7.3525892-.1533697 14.70403385c-1.1376827.6615499-1.3002088.59631055-2.5660811.6913082-11.1181587.8400997-57.32707585 14.26681575-61.6065483 12.9608842l-.15909245-.69932005c3.6282235-1.9159767 21.448867-11.80374415 24.18548605-12.05554515-5.013129 4.02538235-12.20891485 6.5948971-17.83781175 9.888912 6.60977625-.20487445 13.94863085-2.55349105 20.36726725-4.0951999 12.0795807-2.9025788 24.1339813-6.111897 36.4287374-7.96721255Z"/>
  <path fill="#FFA69E" d="m398.76236455 594.4724027.7576921-.18427255.42462805.0343365-.28957115.4280617.77714945.045782c1.61724915 2.67252425-.67185085 77.7103668 1.1491282 91.014616l-.5173366.66040535.068673 3.2001618c.02632465 4.31838715.45667545 9.03622225-.00114455 13.3088274q.20945265 8.80960135.12017775 17.62034725c-.0160237 5.9631055.0663839 11.9445238-.1854171 17.9030511l.0297583 8.59671505c.05379385 2.0624791.2815593 4.2485696-.0503602 6.28472405l-2.03615445-.32619675c-.05379385-.6501044-.091564-1.30364245-.15222515-1.9526023-.35366595-3.7953278-.11331045-7.39722665.14993605-11.193699l.00114455-4.8506029c-.11102135-5.35534945.2609574-10.71642165.53221575-16.06375925l-.2083081-3.49888935c.16595975-7.3434328.42233895-14.8860173-.5333603-22.1790899l.2014408-3.38901255c-1.8175454-7.348011-.58715415-22.00626285-.5585404-29.9437171q.3616778-31.0699543-.0160237-62.13876405l.3364977-3.3764225Z"/>
  <defs>
    <linearGradient id="w" x1="362.79083" x2="354.3873" y1="623.47119" y2="602.63391" gradientUnits="userSpaceOnUse">
      <stop offset="0" stop-color="#FF91DC"/>
      <stop offset="1" stop-color="#FF899C"/>
    </linearGradient>
  </defs>
  <path fill="url(#w)" d="M350.472 602.57c.596.255 1.399.499 1.915.884 6.637 6.388 16.465 9.236 24.206 14.13-1.051.14-1.763.029-2.554.764-4.37 4.06-20.972 7.688-23.463 11.245q.078-7.698-.105-15.395c.4-3.733.024-7.855.001-11.628Z" transform="scale(1.14455)"/>
  <defs>
    <linearGradient id="x" x1="396.69196" x2="389.45108" y1="623.61023" y2="591.84174" gradientUnits="userSpaceOnUse">
      <stop offset="0" stop-color="#E3D3C4"/>
      <stop offset="1" stop-color="#E2D8C2"/>
    </linearGradient>
  </defs>
  <path fill="url(#x)" d="m370.586 595.359.139.611c3.739 1.141 44.112-10.59 53.826-11.324 1.106-.083 1.248-.026 2.242-.604.196 13.728.557 27.537.196 41.264q.244 4.046.272 8.099c-.171.042-.343.082-.514.126-.541.141-1.074.313-1.604.489-4.002 1.327-12.214 3.46-16.189 2.288-2.955-1.745-6.01-3.318-9.04-4.927.013-2.452.136-4.861.319-7.304-.099-.964-.275-1.885-.449-2.838-4.872-1.317-16.384-.036-22.304-.608l-.61-.065c.116-1.175.202-1.885-.277-2.982-7.741-4.894-17.569-7.742-24.206-14.13 6.218-1.343 12.547-5.187 18.199-8.095Z" transform="scale(1.14455)"/>
  <defs>
    <linearGradient id="y" x1="416.01202" x2="412.53445" y1="635.82764" y2="619.67682" gradientUnits="userSpaceOnUse">
      <stop offset="0" stop-color="#C0FFF6"/>
      <stop offset="1" stop-color="#E3D3C4"/>
    </linearGradient>
  </defs>
  <path fill="url(#y)" d="M400.233 624.077c3.526-3.131 20.764-6.455 25.796-6.675.14 2.641.078 5.39.96 7.904q.244 4.046.272 8.099c-.171.042-.343.082-.514.126-.541.141-1.074.313-1.604.489-4.002 1.327-12.214 3.46-16.189 2.288-2.955-1.745-6.01-3.318-9.04-4.927.013-2.452.136-4.861.319-7.304Z" transform="scale(1.14455)"/>
  <path fill="#B8F2E6" d="M490.9066514 649.0582813c2.27650995.82293145 4.36416915 2.61987495 6.33737335 4.01622595.3181849 8.50972925 1.327678 16.9210272 1.34484625 25.4502138l.28957115.2403555c1.94687955-6.06725955.54823945-17.7451032.38800245-24.2987965q20.1326345 11.96398115 40.8306767 22.9230474c8.82791415 4.65259575 18.1273829 8.8336369 26.75614535 13.7826711l.6020333.8790144.6043224.3960143c.7348011 6.4712857-.34908775 13.1348558.56426315 19.571805l1.26930595-.4326399c9.8087935 14.09513325 22.7559431 25.29569955 33.5215804 38.57247955 5.3862523 5.5876931 11.2326137 11.42833175 15.66774495 17.80118615 2.1265739 1.52797425 3.71406475 3.78502685 5.37366225 5.79256755l.1625261 48.17983225c6.1141861-.01259005 21.47748075 1.0117822 26.4528396-.480711.3731233-1.42496475.5631186-2.68854795.68100725-4.14670465l-.00343365-2.5019863c-1.14569455-2.9598063-.5356494-8.39298515-.5470949-11.63435075 7.0321152-4.1272473 30.5663523-9.7607224 40.06726185-13.23672075 2.29482275-.8400997 2.82360485-1.2315358 3.8411098-3.47828745 6.0912951 14.13175885 14.05392945 22.6598009 27.3455886 30.28593755 4.486636 1.68134395 8.83935965 3.1040196 13.56635115 3.93152925 11.1135805 1.945735 33.8260307 2.3898204 44.75762775-.15909245-7.70396605 2.8636641-14.65024 7.40180485-21.78879835 11.41688625q-10.9831018 6.06725955-22.0394548 12.00060675-50.9874134 28.24634945-101.6635092 57.0535284c-16.4632072 9.3326607-32.79250205 19.5283121-49.75931125 27.8881053-68.23692645-40.5514065-139.2619767-76.57840685-206.89229165-118.08665715-1.0735879-.65811625-1.236114-1.0209386-2.53517825-.7805831-.32390765 1.8473037-.25294555 3.70490835-.2495119 5.5739585l-.0045782 5.64377605c-9.5157887.0480711-19.05332385-.02632465-28.5633898.34222045l-.06295025-10.9510544c.51161385-17.3536671-.03777015-34.80691005.04005925-52.17202265l-.01259005-9.08658245.00572275-34.77486265c-.0091564-1.11593625.10186495-1.9663369.39944795-3.04106935 3.89948185-2.23988435 12.44698125-1.0140713 16.9553637-1.0026258l10.9327416.0846967.0663839 5.6929917c.69016365.8217869.9202182 1.3711709 1.0941898 2.4104223.0595166.3525214.1098768.70618735.1648152 1.05870875 2.0121189 1.87362835 13.0524482-1.61496005 16.5410366-1.56917805 1.51195055.01945735 2.65878965-.01716825 4.12038-.389147.5814314-.801185 1.17774195-1.5588771 1.8038108-2.32458105l.2083081 3.49888935c-.27125835 5.3473376-.6432371 10.7084098-.53221575 16.06375925l-.00114455 4.8506029c-.2632465 3.79647235-.503602 7.3983712-.14993605 11.193699.06066115.64895985.0984313 1.3024979.15222515 1.9526023l2.03615445.32619675c.3319195-2.03615445.10415405-4.22224495.0503602-6.28472405l-.0297583-8.59671505c.251801-5.9585273.1693934-11.9399456.1854171-17.9030511 2.85107405-4.07116435 21.85289315-8.22359175 26.85457665-12.87046475.90533905-.84124425 1.72025865-.7141992 2.9231807-.8744362.54823945 1.25557135.44980815 2.06820185.31704035 3.4130481l.6981755.07439575c6.775736.6546826 19.9517956-.81148595 25.5280432.6958864.1991517 1.09075615.4005925 2.1448867.51390295 3.2482329-.20945265 2.79613565-.3502323 5.5533566-.36511145 8.3597932 3.4679865 1.84158095 6.96458675 3.6419581 10.346732 5.63919785 4.54958625 1.3414126 13.94863085-1.09991255 18.52911995-2.6187304.6066115-.2014408 1.21665665-.3983034 1.8358582-.55968495.19571805-.0503602.39258065-.0961422.5882987-.1442133.27812565 4.86319295.114455 9.8591537-.0526493 14.7257803.0503602 3.57442965-.1030095 7.43156315.85955705 10.8846705l.51390295-.01259005c-.00114455-2.11398385-.12933415-4.36188005.26896925-6.4438165.2724029-1.4215311.79088405-1.35171355 1.9320004-2.1265739-.2037299-.14764695-.41547165-.2838484-.61004515-.4417963-1.0392514-.83666605-1.2704505-1.3986401-1.442133-2.71143895-.8103414-6.20002735-.03777015-13.02841265-.04921565-19.29825755-.022891-13.17949325-.3387868-26.4642851.09499765-39.63233285.1327678-4.02767145 1.37231545-7.9614898 1.08846705-11.96855935.5356494-6.27556765-.08584125-12.63468745-.7187774-18.8804968Z"/>
  <path fill="#FF7977" d="M601.506807 884.28505275c.05837205-.068673.12017775-.13391235.1762607-.20487445.2174645-.2724029.4166162-.55739585.640948-.824076 2.16663315-2.5615029 7.45445415-2.4150005 10.575642-2.70914985-3.0147447 1.8610383-7.3457219 5.32330205-10.80569655 5.84750595-.6729954-.93051915-.53679395-1.01979405-.58715415-2.10940565Z"/>
  <defs>
    <linearGradient id="z" x1="420.52667" x2="418.67441" y1="644.99762" y2="634.83521" gradientUnits="userSpaceOnUse">
      <stop offset="0" stop-color="#BEDAE0"/>
      <stop offset="1" stop-color="#C0FFF3"/>
    </linearGradient>
  </defs>
  <path fill="url(#z)" d="M408.954 636.308c3.975 1.172 12.187-.961 16.189-2.288.53-.176 1.063-.348 1.604-.489.171-.044.343-.084.514-.126.243 4.249.1 8.614-.046 12.866-6.036.182-13.404-6.533-18.261-9.963Z" transform="scale(1.14455)"/>
  <path fill="#FFA69E" d="M484.03591775 825.7722231c8.85767245 1.25328225 75.0572999 37.5389509 80.141391 44.20595465-1.9823606-.07439575-3.21046275-.389147-5.02571905-1.21436755-12.84070645-5.84292775-25.28883225-14.28283945-37.56298645-21.28863-12.36114-7.0550062-25.99387505-13.459908-37.5526855-21.7029571Z"/>
  <path fill="#C3FFD3" d="m567.45529995 692.05101295.6043224.3960143c.7348011 6.4712857-.34908775 13.1348558.56426315 19.571805-.6340807 13.6155668 1.4055074 27.5813659-.56655225 41.0481412-8.2453382-12.5122206-11.056353-29.52824545-21.21194515-40.7139326-2.7286072-3.00444375-5.2992665-2.8339058-9.05224595-3.0605267l5.470949-.2632465-.6707063-.19342895c6.41291365-7.370902 17.18770735-10.57907565 24.8619151-16.78482575Z"/>
  <defs>
    <linearGradient id="A" x1="555.64587" x2="581.19788" y1="671.01831" y2="754.37958" gradientUnits="userSpaceOnUse">
      <stop offset="0" stop-color="#6DFFB1"/>
      <stop offset="1" stop-color="#D2FFE6"/>
    </linearGradient>
  </defs>
  <path fill="url(#A)" d="M527.207 655.418c4.706 4.882 9.814 9.985 13.689 15.553 1.858 1.335 3.245 3.307 4.695 5.061l.142 42.095c5.342-.011 18.765.884 23.112-.42.326-1.245.492-2.349.595-3.623l-.003-2.186c-1.001-2.586-.468-7.333-.478-10.165 6.144-3.606 26.706-8.528 35.007-11.565 2.005-.734 2.467-1.076 3.356-3.039 5.322 12.347 12.279 19.798 23.892 26.461-5.746 2.508-10.176 6.461-15.586 9.439-3.172 1.747-6.522 3.169-9.693 4.93-14.426 8.009-29.099 17.457-43.425 25.884-8.887 5.228-17.802 10.88-27.016 15.496-2.727.257-7.347.129-9.24 2.367-.196.233-.37.482-.56.72-.049.062-.103.119-.154.179-.327-12.784.407-25.502.593-38.281q.547-30.304.083-60.609c.026-6.082.112-12.272.991-18.297Z" transform="scale(1.14455)"/>
  <path fill="#FFA69E" d="M651.74911835 814.8028559c9.934694 3.14865705 21.14327215 9.21248295 28.2062902 16.95879735-9.5272342-4.5347071-18.83814845-9.59247355-28.20285655-14.45681105l-.00343365-2.5019863Z"/>
  <path fill="#968773" d="M603.41477185 750.1586719c5.3862523 5.5876931 11.2326137 11.42833175 15.66774495 17.80118615-.0114455 2.0029625 1.57146715 2.79384655 2.74806455 4.37790375-5.7868448 2.5775266-12.56372535 4.1592947-18.6401413 6.0363567.03090285-2.29253365.4417963-5.06921195-.4440854-7.18434035l-.46583185-.0892749c.0297583-6.9611531.1281896-14.0459176 1.13424905-20.94183135Z"/>
  <path fill="#FF7977" d="M460.864503 821.69419145c5.5144419-12.31192435 47.65562835-104.68855485 52.4524374-109.7257194 4.2165222-4.4271194 18.72369345-2.6233086 24.47620175-2.6759579 3.75297945.2266209 6.32363875.05608295 9.05224595 3.0605267 10.15559215 11.18568715 12.96660695 28.201712 21.21194515 40.7139326 7.64673855 23.2366541 20.94183135 46.4023461 31.2324804 68.7142038q-14.43163095.0778294-28.8632619-.045782c-4.4339867-6.2149065-6.8650109-13.1508795-9.5798835-20.21847575-20.52063695.9453983-41.26446115.2792702-61.8079891.160237-2.5546356 6.76085685-5.74907465 13.4003914-8.5955705 20.0548051l-29.57860565-.03777015Z"/>
  <path fill="#B8F2E6" d="M529.25937735 734.5058061c5.34161485 2.78011195 18.76489725 36.31084875 21.9547581 43.70235265-6.02834485-.33306405-12.1024717-.22089815-18.13997295-.24607825q-11.66868725.0778294-23.3350854-.11331045 8.35635955-22.30384585 19.52030025-43.34296395Z"/>
  <path fill="#FF7977" d="M431.02951815 706.8557672c.54823945 1.25557135.44980815 2.06820185.31704035 3.4130481l.6981755.07439575c6.775736.6546826 19.9517956-.81148595 25.5280432.6958864.1991517 1.09075615.4005925 2.1448867.51390295 3.2482329-.20945265 2.79613565-.3502323 5.5533566-.36511145 8.3597932.41547165 33.0454476-.045782 66.1000516.22318725 99.14664375l-27.61455785.30101665.10186495-43.21248525c-18.335691-.045782-36.6530692.67185085-54.98303745.53908305-.0343365 11.93880105-.66498355 24.26560455.4028816 36.1563345l-.0045782 5.64377605c-9.5157887.0480711-19.05332385-.02632465-28.5633898.34222045l-.06295025-10.9510544c.51161385-17.3536671-.03777015-34.80691005.04005925-52.17202265l-.01259005-9.08658245.00572275-34.77486265c-.0091564-1.11593625.10186495-1.9663369.39944795-3.04106935 3.89948185-2.23988435 12.44698125-1.0140713 16.9553637-1.0026258l10.9327416.0846967.0663839 5.6929917c.69016365.8217869.9202182 1.3711709 1.0941898 2.4104223.0595166.3525214.1098768.70618735.1648152 1.05870875 2.0121189 1.87362835 13.0524482-1.61496005 16.5410366-1.56917805 1.51195055.01945735 2.65878965-.01716825 4.12038-.389147.5814314-.801185 1.17774195-1.5588771 1.8038108-2.32458105l.2083081 3.49888935c-.27125835 5.3473376-.6432371 10.7084098-.53221575 16.06375925l-.00114455 4.8506029c-.2632465 3.79647235-.503602 7.3983712-.14993605 11.193699.06066115.64895985.0984313 1.3024979.15222515 1.9526023l2.03615445.32619675c.3319195-2.03615445.10415405-4.22224495.0503602-6.28472405l-.0297583-8.59671505c.251801-5.9585273.1693934-11.9399456.1854171-17.9030511 2.85107405-4.07116435 21.85289315-8.22359175 26.85457665-12.87046475.90533905-.84124425 1.72025865-.7141992 2.9231807-.8744362Z"/>
  <defs>
    <linearGradient id="B" x1="366.86401" x2="362.12125" y1="659.48749" y2="647.36493" gradientUnits="userSpaceOnUse">
      <stop offset="0" stop-color="#E3D8BD"/>
      <stop offset="1" stop-color="#CCF7FF"/>
    </linearGradient>
  </defs>
  <path fill="url(#B)" d="M350.44 652.746c3.483-1.543 20.628-9.249 23.322-9.353.3-.012.599.035.898.053l.171-.207 1.301 2.366c.094 4.124.216 8.247.12 12.372-6.483-.036-19.996-.958-25.856.26.29-1.779.091-3.689.044-5.491Z" transform="scale(1.14455)"/>
  <defs>
    <linearGradient id="C" x1="339.70404" x2="337.13916" y1="647.52789" y2="628.07495" gradientUnits="userSpaceOnUse">
      <stop offset="0" stop-color="#C6FFE8"/>
      <stop offset="1" stop-color="#6CFFD1"/>
    </linearGradient>
  </defs>
  <path fill="url(#C)" d="M328.171 625.847c.603.718.804 1.198.956 2.106.052.308.096.617.144.925 1.758 1.637 11.404-1.411 14.452-1.371 1.321.017 2.323-.015 3.6-.34.508-.7 1.029-1.362 1.576-2.031l.182 3.057c-.237 4.672-.562 9.356-.465 14.035l-.001 4.238c-.23 3.317-.44 6.464-.131 9.78.053.567.086 1.138.133 1.706-6.472.105-13.104.485-19.559.097-.754-1.093-.515-1.711-.491-2.992q-.408-14.602-.396-29.21Z" transform="scale(1.14455)"/>
  <defs>
    <linearGradient id="D" x1="339.13696" x2="337.97366" y1="657.70984" y2="647.2818" gradientUnits="userSpaceOnUse">
      <stop offset="0" stop-color="#E3D9BE"/>
      <stop offset="1" stop-color="#CAFFEB"/>
    </linearGradient>
  </defs>
  <path fill="url(#D)" d="M348.615 646.466c-.23 3.317-.44 6.464-.131 9.78.053.567.086 1.138.133 1.706-6.472.105-13.104.485-19.559.097-.754-1.093-.515-1.711-.491-2.992.289-1.261.753-4.867 1.603-5.667 2.294-2.163 13.374-2.458 16.629-2.288.967.051 1.019-.146 1.816-.636Z" transform="scale(1.14455)"/>
  <defs>
    <linearGradient id="E" x1="367.34207" x2="358.7153" y1="645.56689" y2="624.87128" gradientUnits="userSpaceOnUse">
      <stop offset="0" stop-color="#C9F6FF"/>
      <stop offset="1" stop-color="#FF91DC"/>
    </linearGradient>
  </defs>
  <path fill="url(#E)" d="M376.593 617.584c.479 1.097.393 1.807.277 2.982-2.065 4.346-.822 19.432-.738 25.039l-1.301-2.366-.171.207c-.299-.018-.598-.065-.898-.053-2.694.104-19.839 7.81-23.322 9.353l-.026-7.511c.22-5.206.148-10.432.162-15.642 2.491-3.557 19.093-7.185 23.463-11.245.791-.735 1.503-.624 2.554-.764Z" transform="scale(1.14455)"/>
</svg>